<mxfile host="app.diagrams.net" agent="Mozilla/5.0 (Windows NT 10.0; Win64; x64) AppleWebKit/537.36 (KHTML, like Gecko) Chrome/132.0.0.0 Safari/537.36" version="26.0.11">
  <diagram name="페이지-1" id="KdrQbQgKbxxbEin61_9B">
    <mxGraphModel dx="2261" dy="1907" grid="1" gridSize="10" guides="1" tooltips="1" connect="1" arrows="1" fold="1" page="1" pageScale="1" pageWidth="827" pageHeight="1169" math="0" shadow="0">
      <root>
        <mxCell id="0" />
        <mxCell id="1" parent="0" />
        <UserObject label="VPC" tooltip="nouu-ceph-monitoring-vpc-seoul&#xa;172.30.0.0/16" id="15WFC5FHede9x706vmRa-120">
          <mxCell style="sketch=0;outlineConnect=0;gradientColor=none;html=1;whiteSpace=wrap;fontSize=12;fontStyle=0;shape=mxgraph.aws4.group;grIcon=mxgraph.aws4.group_vpc;strokeColor=#879196;fillColor=none;verticalAlign=top;align=left;spacingLeft=30;fontColor=#879196;dashed=0;" parent="1" vertex="1">
            <mxGeometry x="960" y="130" width="590" height="580" as="geometry" />
          </mxCell>
        </UserObject>
        <UserObject label="ap-northeast-2c" tooltip="nouu-ceph-monitoring-public-subnetC-seoul&#xa;172.30.1.0/24&#xa;&#xa;nouu-ceph-monitoring-private-subnetC-seoul&#xa;172.30.11.0/24" id="15WFC5FHede9x706vmRa-59">
          <mxCell style="fillColor=none;strokeColor=#147EBA;dashed=1;verticalAlign=top;fontStyle=0;fontColor=#147EBA;whiteSpace=wrap;html=1;container=0;spacingTop=-4;movable=1;resizable=1;rotatable=1;deletable=1;editable=1;locked=0;connectable=1;" parent="1" vertex="1">
            <mxGeometry x="1300" y="160" width="200" height="480" as="geometry" />
          </mxCell>
        </UserObject>
        <mxCell id="ijEthVfau9IOE6_X4YqO-11" value="" style="verticalLabelPosition=bottom;verticalAlign=top;html=1;shape=mxgraph.basic.diag_round_rect;dx=6;whiteSpace=wrap;fillColor=none;opacity=10;" parent="1" vertex="1">
          <mxGeometry x="-435" y="-600" width="1095" height="800" as="geometry" />
        </mxCell>
        <mxCell id="ijEthVfau9IOE6_X4YqO-3" value="" style="whiteSpace=wrap;html=1;aspect=fixed;fillColor=none;align=left;" parent="1" vertex="1">
          <mxGeometry x="-380" y="-584" width="500" height="500" as="geometry" />
        </mxCell>
        <mxCell id="IML-LDQJfkCQp97udq9o-5" value="" style="endArrow=none;html=1;rounded=0;exitX=0.483;exitY=0.088;exitDx=0;exitDy=0;exitPerimeter=0;" parent="1" source="IML-LDQJfkCQp97udq9o-3" target="IW7DVmYQCaHOVOdKGuUd-9" edge="1">
          <mxGeometry width="50" height="50" relative="1" as="geometry">
            <mxPoint x="337.5" y="580" as="sourcePoint" />
            <mxPoint x="370" y="500" as="targetPoint" />
          </mxGeometry>
        </mxCell>
        <UserObject label="" tooltip="&lt;네트워크 node 네트워크 구성&gt;&#xa;매니지먼트용 : 192.168.10.53&#xa;네트워크 : SVI&#xa; - vlan 10&#xa; - gw : 192.168.10.1&#xa;&#xa;서비스 API : 192.168.20.53&#xa;네트워크 : SVI&#xa; - vlan 20 &#xa; - gw : 192.168.20.1" id="IML-LDQJfkCQp97udq9o-9">
          <mxCell style="endArrow=none;html=1;rounded=0;exitX=0.522;exitY=0.057;exitDx=0;exitDy=0;exitPerimeter=0;entryX=0.388;entryY=0.948;entryDx=0;entryDy=0;entryPerimeter=0;opacity=25;" parent="1" source="IML-LDQJfkCQp97udq9o-1" target="IML-LDQJfkCQp97udq9o-10" edge="1">
            <mxGeometry width="50" height="50" relative="1" as="geometry">
              <mxPoint x="390" y="210" as="sourcePoint" />
              <mxPoint x="550" y="-110" as="targetPoint" />
            </mxGeometry>
          </mxCell>
        </UserObject>
        <mxCell id="IML-LDQJfkCQp97udq9o-21" value="" style="whiteSpace=wrap;html=1;aspect=fixed;fillColor=none;" parent="1" vertex="1">
          <mxGeometry x="-650" y="210" width="530" height="530" as="geometry" />
        </mxCell>
        <mxCell id="IML-LDQJfkCQp97udq9o-1" value="장비 이름 : Cisco catalyst 4948 switch" style="shape=mxgraph.rack.cisco.cisco_catalyst_4948_10_gigabit_ethernet_switch;html=1;labelPosition=right;align=left;spacingLeft=15;dashed=0;shadow=0;fillColor=#ffffff;" parent="1" vertex="1">
          <mxGeometry x="290" y="260" width="161" height="35" as="geometry" />
        </mxCell>
        <mxCell id="IML-LDQJfkCQp97udq9o-4" value="공인망" style="ellipse;shape=cloud;whiteSpace=wrap;html=1;" parent="1" vertex="1">
          <mxGeometry x="274.5" y="820" width="200.5" height="200" as="geometry" />
        </mxCell>
        <mxCell id="IML-LDQJfkCQp97udq9o-7" value="" style="endArrow=none;html=1;rounded=0;exitX=0.483;exitY=0.088;exitDx=0;exitDy=0;exitPerimeter=0;" parent="1" source="IML-LDQJfkCQp97udq9o-4" target="IML-LDQJfkCQp97udq9o-3" edge="1">
          <mxGeometry width="50" height="50" relative="1" as="geometry">
            <mxPoint x="368" y="817" as="sourcePoint" />
            <mxPoint x="371" y="480" as="targetPoint" />
          </mxGeometry>
        </mxCell>
        <mxCell id="IML-LDQJfkCQp97udq9o-3" value="KT Giga2 Fiber Modem" style="image;aspect=fixed;perimeter=ellipsePerimeter;html=1;align=center;shadow=0;dashed=0;spacingTop=3;image=img/lib/active_directory/modem.svg;" parent="1" vertex="1">
          <mxGeometry x="337" y="610" width="66" height="54.78" as="geometry" />
        </mxCell>
        <mxCell id="IML-LDQJfkCQp97udq9o-8" value="&lt;div&gt;&lt;b&gt;&amp;lt;Configure&amp;gt;&lt;/b&gt;&lt;/div&gt;&lt;b&gt;LAN2에 물림&lt;/b&gt;" style="text;strokeColor=none;align=center;fillColor=none;html=1;verticalAlign=middle;whiteSpace=wrap;rounded=0;" parent="1" vertex="1">
          <mxGeometry x="330" y="560.39" width="239" height="110" as="geometry" />
        </mxCell>
        <mxCell id="IML-LDQJfkCQp97udq9o-10" value="장비 이름 : HPE DL360 GEN10&lt;div&gt;network node&lt;/div&gt;" style="sketch=0;aspect=fixed;pointerEvents=1;shadow=0;dashed=0;html=1;strokeColor=none;labelPosition=center;verticalLabelPosition=bottom;verticalAlign=top;align=center;fillColor=#00188D;shape=mxgraph.azure.server" parent="1" vertex="1">
          <mxGeometry x="517" y="-470" width="116" height="34.8" as="geometry" />
        </mxCell>
        <mxCell id="IML-LDQJfkCQp97udq9o-12" value="&lt;div&gt;&lt;b&gt;&amp;lt;Configure&amp;gt;&lt;/b&gt;&lt;/div&gt;&lt;b&gt;vlan : 10&lt;/b&gt;&lt;div&gt;&lt;b&gt;name:&amp;nbsp;&lt;br&gt;&lt;/b&gt;&lt;div&gt;&lt;b&gt;&lt;br&gt;&lt;/b&gt;&lt;/div&gt;&lt;div&gt;&lt;b&gt;주소 : 172.30.1.100/24&lt;/b&gt;&lt;/div&gt;&lt;/div&gt;" style="text;strokeColor=none;align=center;fillColor=none;html=1;verticalAlign=middle;whiteSpace=wrap;rounded=0;" parent="1" vertex="1">
          <mxGeometry x="600" y="90.00000000000003" width="239" height="110" as="geometry" />
        </mxCell>
        <mxCell id="IML-LDQJfkCQp97udq9o-14" value="" style="endArrow=none;dashed=1;html=1;dashPattern=1 3;strokeWidth=2;rounded=0;entryX=1;entryY=0.75;entryDx=0;entryDy=0;exitX=0;exitY=0.5;exitDx=0;exitDy=0;" parent="1" source="IML-LDQJfkCQp97udq9o-3" target="IML-LDQJfkCQp97udq9o-15" edge="1">
          <mxGeometry width="50" height="50" relative="1" as="geometry">
            <mxPoint x="337.5" y="540" as="sourcePoint" />
            <mxPoint x="-110" y="460" as="targetPoint" />
          </mxGeometry>
        </mxCell>
        <mxCell id="IML-LDQJfkCQp97udq9o-15" value="장비 이름 : kt giga wifi home( 공유기 )" style="image;html=1;image=img/lib/clip_art/networking/Wireless_Router_128x128.png" parent="1" vertex="1">
          <mxGeometry x="-90" y="420" width="80" height="80" as="geometry" />
        </mxCell>
        <mxCell id="IML-LDQJfkCQp97udq9o-16" value="" style="endArrow=none;dashed=1;html=1;dashPattern=1 3;strokeWidth=2;rounded=0;entryX=1;entryY=0.75;entryDx=0;entryDy=0;" parent="1" edge="1">
          <mxGeometry width="50" height="50" relative="1" as="geometry">
            <mxPoint x="-90" y="480" as="sourcePoint" />
            <mxPoint x="-460" y="440" as="targetPoint" />
          </mxGeometry>
        </mxCell>
        <mxCell id="IML-LDQJfkCQp97udq9o-17" value="내 PC" style="fontColor=#0066CC;verticalAlign=top;verticalLabelPosition=bottom;labelPosition=center;align=center;html=1;outlineConnect=0;fillColor=#CCCCCC;strokeColor=#6881B3;gradientColor=none;gradientDirection=north;strokeWidth=2;shape=mxgraph.networks.pc;" parent="1" vertex="1">
          <mxGeometry x="-560" y="405" width="100" height="70" as="geometry" />
        </mxCell>
        <mxCell id="IML-LDQJfkCQp97udq9o-18" value="&lt;div style=&quot;forced-color-adjust: none; color: rgb(0, 0, 0); font-family: Helvetica; font-size: 12px; font-style: normal; font-variant-ligatures: normal; font-variant-caps: normal; letter-spacing: normal; orphans: 2; text-align: center; text-indent: 0px; text-transform: none; widows: 2; word-spacing: 0px; -webkit-text-stroke-width: 0px; white-space: normal; background-color: rgb(251, 251, 251); text-decoration-thickness: initial; text-decoration-style: initial; text-decoration-color: initial;&quot;&gt;&lt;b&gt;dhcp 연결&lt;/b&gt;&lt;/div&gt;" style="text;whiteSpace=wrap;html=1;" parent="1" vertex="1">
          <mxGeometry y="530" width="100" height="50" as="geometry" />
        </mxCell>
        <mxCell id="IML-LDQJfkCQp97udq9o-19" value="&lt;div style=&quot;forced-color-adjust: none; color: rgb(0, 0, 0); font-family: Helvetica; font-size: 12px; font-style: normal; font-variant-ligatures: normal; font-variant-caps: normal; letter-spacing: normal; orphans: 2; text-align: center; text-indent: 0px; text-transform: none; widows: 2; word-spacing: 0px; -webkit-text-stroke-width: 0px; white-space: normal; background-color: rgb(251, 251, 251); text-decoration-thickness: initial; text-decoration-style: initial; text-decoration-color: initial;&quot;&gt;&lt;b&gt;dhcp 연결&lt;/b&gt;&lt;/div&gt;" style="text;whiteSpace=wrap;html=1;" parent="1" vertex="1">
          <mxGeometry x="-190" y="425" width="100" height="50" as="geometry" />
        </mxCell>
        <mxCell id="IML-LDQJfkCQp97udq9o-20" value="&lt;div style=&quot;forced-color-adjust: none; color: rgb(0, 0, 0); font-family: Helvetica; font-size: 12px; font-style: normal; font-variant-ligatures: normal; font-variant-caps: normal; letter-spacing: normal; orphans: 2; text-align: center; text-indent: 0px; text-transform: none; widows: 2; word-spacing: 0px; -webkit-text-stroke-width: 0px; white-space: normal; background-color: rgb(251, 251, 251); text-decoration-thickness: initial; text-decoration-style: initial; text-decoration-color: initial;&quot;&gt;&lt;b&gt;dhcp 연결&lt;/b&gt;&lt;/div&gt;" style="text;whiteSpace=wrap;html=1;" parent="1" vertex="1">
          <mxGeometry x="-460" y="375" width="100" height="50" as="geometry" />
        </mxCell>
        <mxCell id="IML-LDQJfkCQp97udq9o-22" value="&lt;div style=&quot;forced-color-adjust: none; color: rgb(0, 0, 0); font-family: Helvetica; font-size: 12px; font-style: normal; font-variant-ligatures: normal; font-variant-caps: normal; letter-spacing: normal; orphans: 2; text-align: center; text-indent: 0px; text-transform: none; widows: 2; word-spacing: 0px; -webkit-text-stroke-width: 0px; white-space: normal; background-color: rgb(251, 251, 251); text-decoration-thickness: initial; text-decoration-style: initial; text-decoration-color: initial;&quot;&gt;&lt;b&gt;172.30.1.0/24&lt;/b&gt;&lt;/div&gt;" style="text;whiteSpace=wrap;html=1;" parent="1" vertex="1">
          <mxGeometry x="-435" y="220" width="100" height="50" as="geometry" />
        </mxCell>
        <mxCell id="IML-LDQJfkCQp97udq9o-23" value="&lt;div&gt;&lt;b&gt;&amp;lt;Configure&amp;gt;&lt;/b&gt;&lt;/div&gt;&lt;b&gt;LAN1에 물림&lt;/b&gt;" style="text;strokeColor=none;align=center;fillColor=none;html=1;verticalAlign=middle;whiteSpace=wrap;rounded=0;" parent="1" vertex="1">
          <mxGeometry x="120" y="610" width="239" height="110" as="geometry" />
        </mxCell>
        <mxCell id="IML-LDQJfkCQp97udq9o-24" value="&lt;div&gt;앞으로의 할 일&amp;nbsp;&lt;/div&gt;1. 각 노드 설명을 숨김 처리&lt;div&gt;2. 워크플로우 도구 n8n에 대해 알아보기&lt;/div&gt;" style="rounded=0;whiteSpace=wrap;html=1;" parent="1" vertex="1">
          <mxGeometry x="900" y="-920" width="310" height="280" as="geometry" />
        </mxCell>
        <mxCell id="gHBLTUYkY8NAUvaZ6qK5-2" value="pxe-tftp-http-server" style="image;sketch=0;aspect=fixed;html=1;points=[];align=center;fontSize=12;image=img/lib/mscae/VM_Linux_Non_Azure.svg;" parent="1" vertex="1">
          <mxGeometry x="-535" y="514.39" width="50" height="46" as="geometry" />
        </mxCell>
        <mxCell id="IW7DVmYQCaHOVOdKGuUd-1" value="장비 이름 : HPE DL360 GEN9&lt;div&gt;controller node&lt;/div&gt;" style="sketch=0;aspect=fixed;pointerEvents=1;shadow=0;dashed=0;html=1;strokeColor=none;labelPosition=center;verticalLabelPosition=bottom;verticalAlign=top;align=center;fillColor=#00188D;shape=mxgraph.azure.server" parent="1" vertex="1">
          <mxGeometry x="144" y="-470" width="116" height="34.8" as="geometry" />
        </mxCell>
        <mxCell id="IW7DVmYQCaHOVOdKGuUd-2" value="장비 이름 : HPE DL360 GEN9&lt;div&gt;compute node&lt;/div&gt;" style="sketch=0;aspect=fixed;pointerEvents=1;shadow=0;dashed=0;html=1;strokeColor=none;labelPosition=center;verticalLabelPosition=bottom;verticalAlign=top;align=center;fillColor=#00188D;shape=mxgraph.azure.server" parent="1" vertex="1">
          <mxGeometry x="337" y="-470" width="116" height="34.8" as="geometry" />
        </mxCell>
        <UserObject label="" tooltip="&lt;controller 네트워크 구성&gt;&#xa;매니지먼트용 : 192.168.10.51&#xa;네트워크 : SVI&#xa; - vlan 10&#xa; - gw : 192.168.10.1&#xa;&#xa;서비스 API : 192.168.20.51&#xa;네트워크 : SVI&#xa; - vlan 20 &#xa; - gw : 192.168.20.1" id="IW7DVmYQCaHOVOdKGuUd-3">
          <mxCell style="endArrow=none;html=1;rounded=0;entryX=0.353;entryY=1.025;entryDx=0;entryDy=0;entryPerimeter=0;opacity=25;" parent="1" target="IW7DVmYQCaHOVOdKGuUd-1" edge="1">
            <mxGeometry width="50" height="50" relative="1" as="geometry">
              <mxPoint x="338" y="260" as="sourcePoint" />
              <mxPoint x="200" y="-120" as="targetPoint" />
            </mxGeometry>
          </mxCell>
        </UserObject>
        <UserObject label="" tooltip="&lt;compute node 네트워크 구성&gt;&#xa;매니지먼트용 : 192.168.10.52&#xa;네트워크 : SVI&#xa; - vlan 10&#xa; - gw : 192.168.10.1&#xa;&#xa;서비스 API : 192.168.20.52&#xa;네트워크 : SVI&#xa; - vlan 20 &#xa; - gw : 192.168.20.1&#xa;&#xa;Storage : 192.168.30.52&#xa;네트워크 : SVI&#xa; - vlan 30&#xa; - gw : 192.168.30.1" id="IW7DVmYQCaHOVOdKGuUd-4">
          <mxCell style="endArrow=none;html=1;rounded=0;exitX=0.522;exitY=0.057;exitDx=0;exitDy=0;exitPerimeter=0;entryX=0.411;entryY=0.987;entryDx=0;entryDy=0;entryPerimeter=0;opacity=25;" parent="1" target="IW7DVmYQCaHOVOdKGuUd-2" edge="1">
            <mxGeometry width="50" height="50" relative="1" as="geometry">
              <mxPoint x="360" y="260" as="sourcePoint" />
              <mxPoint x="380" y="-112" as="targetPoint" />
            </mxGeometry>
          </mxCell>
        </UserObject>
        <mxCell id="IW7DVmYQCaHOVOdKGuUd-5" value="장비 이름 : Dell R630&lt;div&gt;storage node&lt;/div&gt;" style="sketch=0;aspect=fixed;pointerEvents=1;shadow=0;dashed=0;html=1;strokeColor=none;labelPosition=center;verticalLabelPosition=bottom;verticalAlign=top;align=center;fillColor=#00188D;shape=mxgraph.azure.server" parent="1" vertex="1">
          <mxGeometry x="-198" y="-382.9" width="116" height="34.8" as="geometry" />
        </mxCell>
        <UserObject label="" tooltip="&lt;Storage 네트워크 구성&gt;&#xa;관리자 SSH 접근용도&#xa;매니지먼트 : 192.168.10.50/24&#xa;네트워크 : SVI&#xa; - vlan 10&#xa; - gw : 192.168.10.1&#xa;&#xa;서비스 API : 192.168.20.50/24&#xa;네트워크 : SVI&#xa; - vlan 20&#xa; - gw : 192.168.20.1&#xa;&#xa;&#xa;Storage : 실제 iSCSI, Ceph, NFS 등의 스토리지를 집중한다.&#xa;Storage IP : 192.168.30.50 ( eth0, eth1 bonding)&#xa;네트워크 : SVI&#xa; - vlan 30&#xa; - gw : 192.168.30.1&#xa;" id="IW7DVmYQCaHOVOdKGuUd-6">
          <mxCell style="endArrow=none;html=1;rounded=0;entryX=0.5;entryY=1;entryDx=0;entryDy=0;entryPerimeter=0;exitX=-0.01;exitY=0.333;exitDx=0;exitDy=0;exitPerimeter=0;opacity=25;" parent="1" source="IML-LDQJfkCQp97udq9o-1" target="IW7DVmYQCaHOVOdKGuUd-5" edge="1">
            <mxGeometry width="50" height="50" relative="1" as="geometry">
              <mxPoint x="188" y="200" as="sourcePoint" />
              <mxPoint x="50" y="-180" as="targetPoint" />
            </mxGeometry>
          </mxCell>
        </UserObject>
        <mxCell id="IW7DVmYQCaHOVOdKGuUd-7" value="EMC SAE VNX 25EA x 600gb 10K 2.5&#39;&#39; SAS Hard drive Expansion array JBOD" style="html=1;verticalLabelPosition=bottom;align=center;labelBackgroundColor=#ffffff;verticalAlign=top;strokeWidth=2;strokeColor=#0080F0;shadow=0;dashed=0;shape=mxgraph.ios7.icons.storage;" parent="1" vertex="1">
          <mxGeometry x="-170" y="-530" width="80" height="30" as="geometry" />
        </mxCell>
        <UserObject label="" tooltip="DAS, FC 방식으로 구축&#xa;https://www.ebay.com/itm/132476227123&#xa;&#xa;상기 HBA 카드 사용" id="IW7DVmYQCaHOVOdKGuUd-8">
          <mxCell style="endArrow=none;html=1;rounded=0;exitX=0.5;exitY=0;exitDx=0;exitDy=0;exitPerimeter=0;opacity=30;" parent="1" source="IW7DVmYQCaHOVOdKGuUd-5" target="IW7DVmYQCaHOVOdKGuUd-7" edge="1">
            <mxGeometry width="50" height="50" relative="1" as="geometry">
              <mxPoint x="50" y="-240" as="sourcePoint" />
              <mxPoint x="10" y="-310" as="targetPoint" />
            </mxGeometry>
          </mxCell>
        </UserObject>
        <mxCell id="IW7DVmYQCaHOVOdKGuUd-14" value="" style="endArrow=none;html=1;rounded=0;" parent="1" edge="1">
          <mxGeometry width="50" height="50" relative="1" as="geometry">
            <mxPoint x="370" y="370" as="sourcePoint" />
            <mxPoint x="370.41" y="295" as="targetPoint" />
          </mxGeometry>
        </mxCell>
        <mxCell id="IW7DVmYQCaHOVOdKGuUd-9" value="장비 이름 : 포티넷 포티게이트-60E" style="image;image=img/lib/clip_art/networking/Firewall-page1_128x128.png;align=center;textDirection=ltr;textShadow=0;labelBackgroundColor=none;fontColor=default;" parent="1" vertex="1">
          <mxGeometry x="260" y="370" width="220" height="60" as="geometry" />
        </mxCell>
        <mxCell id="IW7DVmYQCaHOVOdKGuUd-16" value="" style="shape=image;verticalLabelPosition=bottom;labelBackgroundColor=default;verticalAlign=top;aspect=fixed;imageAspect=0;image=data:image/png,iVBORw0KGgoAAAANSUhEUgAAAywAAAD5CAYAAADFlbGcAAAAAXNSR0IArs4c6QAAAARnQU1BAACxjwv8YQUAAAAJcEhZcwAADsMAAA7DAcdvqGQAAE61SURBVHhe7d0PcCTXfeD3H6Mzz6qtkXQCfCwKu7qdEouQrrxg7jKwUuTStZo7UbTLK5CVLOhbSKkzsVXS2FcU1jltOSZqXd5APod2jhBzl7ErCzklEZsIm2QJrSKRlANuhbus02EcWVhFElRUzZ5IiMUY4Nkas2jTZjHvvX4987qnu6d7/ix6gO9H1eJgZna6p/v16/d77/d6bikWi28LAAAAAOTQf2L/CwAAAAC5Q8ACAAAAILcIWAAAAADkFgELAAAAgNwiYAEAAACQWwQsAAAAAHJrdwOWk1VZW1+XdbWsnFV/n10xj5t/94OzjvWL8/ZJ7Jb5i/ZYrK9IHo9Gc/vWqjKj/p6prtntXZPqSe89/Tcj1TV3veG/+yTt+eWcM2vV5LXfnP0DAAD2s8EFLPfOyeLFNbn27/yG19Oy9BsfkzH7cj+0Gr80lnbXgBrYfbQ3G9Zj8rHTi7LyjWv2u+n9/7Q8+dsnZNy+AwAAYNgNJmD58Lys/O6M3HO4ILe+wz5XGJGJ/+KsPH72bvsEECdDAJRhNOCmc0f3opaeRvzGZObfLMnCyXuk+J5b7XOKOs/Gf/GMVJfPSD/OtEJpLnrb7TJXKth3AgAADMZAApaHT/2CFE0bqiG1P/yETD44L8/ceFP9fasUj5+RhQ/r1/JtavHpVsPs/16Sh+3zkT68IE81G3HXZOmUftJpdHfTq39qSa41P1MtlxakZF+K0hpt0svTsnjcvtDG3a40qXdTsvi0ff+/e1LOHLRPY1eNfeqc/OqHR7w//rwmX6g8IJP/1YI9z1SgcecJmTubVGIAAACGwwACljkpH7E9vj94WhbOb4q8/IzMf3FddsyTY/Kxf2MbwKdLktf+2dVnv2+3V3nnB+UeE4REK338Z1upbo0NWTtvH/egcvcHVXjnOFiST/yifdzRiNzza4sq1OiDUx+XSdsufvP6mjz2svd4rwgGeusyddi+0GeN2qJMTk4GlxML9tWsSlK5f8KWjy157lxFqrUtke+tyvzpJ2XjDfOCFI/N9pyeF7ndzrJYa9h3AgAADEb/A5ZPHZGiTQPbenFZNaesy+tSH6a2zdeelFqzcX6rfPDDcWMsJXngH7Zm5uxsPC3L9nHXDp6Re/5hIFxRRuSD92UIQUbukV/5V70mBY3JmY/4DeMdWf/KF8yjm6pQkjknoGhbchz0DsyHp+Vn/ZGuH7wgn3/ePtZersra/2tPtMK4HGVuFwAAGHJ9D1jG3jdiG7gNeWWzGa4oKnjxhyze2JAv6B7ax2vqXd0ak5/+O/bhQNTkqe+2tv/W8Xui08I+/ECr8aga9d//v1bt4+6NPVyScRv07fzpRnOkZ+Qffzw5NS1k7CNnZOFe+0c3PlyRu++0j29clScv28dtijLiRw2FEfWXFTGHY1AjGN1aOBEcMVi9YV/Is7vf1xzR2/rRWqtTwFr+wY/to4KM3GEfdok5LAAAYLf1PWA59vffZR8leKdqSNmH3fu43N78kILcPt7P+495atWa1O3juLSwQDrYzvfl67GN+rRKUvlHfpNfBUCXVuT7fsTSITXNt/Nj24R9x5h87NcXup58PfPP77bf7U3ZeGZBhXAxTo7JqH2oA8nip+zDfmjUZNEJKNqWnoLemyfY8O/xls6F1ujbm29EHJVXG819Mnp7Hu/ZBgAAkN5AJt3fFJ8qyQffaR8rY3fMtAKHfnn5j6T2A/s4Mi0smA629a0n5Rn7uGvHPyElf8Tm5Zo8+bVn5Mk/8fvQb5WJj5zp+D1/8iePyXN+J/vBj8jco11Mvj54Rn7hH9ne8511+UrCvJypnys6aVlqG3/ebuOFipRDAcZQjGDcJK35M3OSq4GKiOPWeSlL5YL99wAAAH00pAFLSRaak46tO++WSt/vPrYly9/atI8j0sLcuQTqvd95KnYMIrWpf/LB5ujT1nefMqMata98p5X284EJmel4p64X5Mz5azaV7FYp/uKczHX8N0Glyt3NtLStP3lSYhPdDs7JCX9Wvu/Osnw29i5lu60gpdN+oOAsA/79mODk9Wnpdrr9wHS6BXOmhd9FAgAA/dP3gOXK//cT+0jxf4PFcOacvNFozsvoxtjpOflIWwN8TD7yqUrfR1m2fr8mm2/ZP0IpWaUH7myt7+XvyFPftI+79rB8/B/bxv9bm/JC1QZA36zKC/5IzzvG5e5KihGTy3PypW/axKBbx+XEfzeXYd9MySf+M/tudzvajMnMox+XcRM5vimbz23YVKQRueeRPgUAN2vS/d+5VVIkM/ZVa/7MomS62darDbW3Pbe+M6Is3FZo7pPtV3q+BQQAAMCu6nvAsvXjHduYKsjtd7hN5GMy8m778J0T8nC3jc175+Xx/3K8ObrS+NOa1G3r7dYjJ2T+k/0OWRbl2nebzUMnLawk0046WP1b1fg5HmmdLsuEn+b2ww1Zbt6lLDjSM/az02rtnS3/7pLU/tx7fOudJ+Tcp1LuG+dWxo1vfT32VsZjn5yXWT+X6cbXZfHMWVnyW97vKcmvXpzvy48X9sNypeyMcEQsPz8rVfve3PvTHfkz+3Ds/eW2QHTmzvfZRw3ZedE+7KSrNLC4hfQwAADQP/1PCfvD61K3IxKBeSXHJ6XYa1f4vXOydHbK/iil8uc1Wfrtijz2tXozSCp9+nFZuK+/QUv1he+3erT9tLAPT0uzXSh12fhC+F5NWY3JmdK4fayoAKP1Y5Tr8tRDzmvvm5BPpEm5enlZFr7oT0q/VSYempeZg9vy1/6XieTeynhLXvifo3voxz65KEuftgHnW1vyzBN6Ur4KrCrzsmp/vPDWw1Pye/9nVeYyH49lqZSjGsLJS7nS+2hCc9SjXOn99tSD8s0V+Y4fRN55t3zGvRPcwTn5hQl7ojU25Wo3gUNX6WGkgQEAgMEYwByWRVm7blvEd94v506phvbBj8nCw/fYuRmqcfsvbKMwwx2e7n6kKk//7oxMvMc+8WZdVs+pRqVquNU+d1r+x2/aJLNbi/Kx31qS6iN97Ns/f02+b3+Mz08LC6SD/aAmfxQzCpGaewvhjkbkg/8k3W+ybH1pQS76x6NQktlHR+Uvk3b68c9K2d+OH7wg1bY0t3E58dsr8qVH1PG0qWD1rz0m883fAnlBFk6fk2d+aIOWv1+SmV//rJwwf+XXTHVtoA3vuNsDr1W7SZyrSfX/8M+dMfnI2apUSqo0fuiEPPY/nLApeiqMvrKU36ALAAAgpYFMuv/C+a/bNK2CTHzqSVm/tCAfs3NOdp77I5nPOtdDBTy/ePeEbSArjU25+BvTstBsJG/J8r+YlcXnbTrarSNSeuiMPPaQebEPvtD6MT6TFjYXSAfb/JbzA5ldCtweOYX0v8myJdWzrV8/L5Q+mXhHqoc/PmkDyzdl47nH2r/XvSfkxD/17wr2pmz98aKcPveC+avp5Wdk/pcfluq1LWn8+JosnpqTi/alvPqZdzk7xZl71UolG0ya09/9u93NnNGB6JIfpL+nJA9Xn5L1L56Rjxz0TpLGDy7K4rkukxQzpIfxS/cAAGDQBhKwyDcXZPo3luXajYa86U9Yb+zI5tcek9kzXfywomkAf1aWr6uA5OXn5LFf+4Q85v66t6GCll+/Xz77pQ3ZeWNLnvvXvyZnvmxf6oPlr7V+wPHWw/fLhJ8O9tam1H6/13DFmeSubD1biWwcTj54MXgDgLS/d/JyVc5e2rRpbSMyErqpV9PBM1I+YqPCuFsZP6+O7amq1HYaUv/aOfm1/+ZiTLC2KV+Ye0DKU3POXJycundBjn3APtZB9v1ZblCQIEXD/56Hu5054wXp8xeuSf3P7QiaZs+zysxjEgoj08uQEsYPRwIAgEEbTMCiPb8ocyfKcs9/bhtn5fvlE78V17hN4wVZfPh+uefBM3Lxe/apCC88MSv3//wDcuZ/7zWICLn8XOsHHN+jGv324ZvfvSaL9nG8mFvpqmXlrHr5pAqAmkHElnznKzE94y8vy8YP7WM9J8X/vZMUth5flK/bNK047q2MN//49+JvZfy9L0jl/rJM/9YzPRzPsBmprkXvo26W1KlWB9V6z35MxvT3tsGgvkHBv/1XJ/oTtAzUljzz+JxMf/SeVhBkz7PWLRoAAACG2+AClj1nVZ78Vrh5/qZ8/4Xe7y318EcmbIqV8uMfJNweeUseqzlN0TtL8iupf1+lJguP+6l6UZxRnjc2ZK3nUaP8G39oQVa+OCclMy+qIbV/+wmb4nSrjP3TM/KlL55ppjLuV8Hfj0lauDMYAAAYDAKWDGpPOT/gqL3xfbmW8AvwqRxw0rCUre+uJN8e+XHnd2GkKKU0v8ni++aCLP5xTCDi3Mp45//5inzBe3gTdXdnsLgl/o5h43L3P5+X6sU1efJffsy7c92bO3LtDytS+dKmLFcqUr3mzYUqfOiELPxva7JSnZeH73Xu0raPxN0sIHK5OG//FQAAQP/cUiwW37aPbz6dK29/i6V+eVKmZUXWjxfNS+bvc+Zhb5x1yI1VmTyRu98Yz4GSLFyq2tEEfRe3B7LfGCGl+YvrMnVYP6rL6k39xfcJmfnX5+RX7x2zt2z2NH74jFR/e74tzVCPvvy3n7IBje/NLXnu9x6QM0/Zv/tGp8PNeTdDaNRksXxVjgb+7tMtls+mPL/ccyYLzi8AADAAuxuwhKVtUGVBwNLZ8UV5+qx32+k3f7As0zOLfZybErR7AYt2t5xZXpATav31jRfkORWkVZ9N+qZjUvrkr8jsx8sy8b435ftfPiezT3Q9lT2DcABzkwMWAACAHMlXwIJd8fD/dE0q/6ked9iRa+ful7nL3vMAAADAbiNgAQAAAJBbTLoHAAAAkFsELAAAAAByi4AFAAAAQG4RsAAAAADILQIWAAAAALlFwAIAAAAgtwhYAAAAAOQWAQsAAACA3CJgAQAAAJBbBCwAAAAAcouABQAAAEBuEbAAAAAAyC0CFgAAAAC5dUuxWHzbPu6rQqEgP/MzP2P++1M/9VP2WeTBLbfcYh8BAOK8/fZALo8AsO/8zd/8jTQaDfmzP/sz89+sBhKwHDp0SEZHR+UnP/mJvPHGG/LWW2/ZV5AH73//++VHP/qR/Qu4+SiDGAb6WvbSSy/ZvwAA3XjHO95h/nvgwAF597vfLa+++mrmurXvKWG6gtcb88orr8hf/uVfEqwAAAAA+5SOBfSiBzJ+/OMfm0ENHS9k0deARad/6Y3Y3t5mKB0AAABAkw5c9AjLbbfdZuKGtPoasOg5Kzp6IlgBAAAAEKaDlr/4i78wcUNafR9h0XNWAAAAACDKX//1X+/eCIu+GxhzVgAAAADE+du//dtMdxHu+6R7AAAAAIiTdYCDgAUAAABAbhGwAAAAAMgtAhYAAAAAuUXAgsH4TFW++tWvypd/50H7xIA98Dn5slrfV//gkZu/biDCI3+gyuNXvyyfeyD4OKte/m1XnPNnqLZ7KD0iVV1vfflzkr22elA+92W9j6vqUwBgbyNgQffcICGLxH+XdAHnAo18efB3vmwa98ElY/m0AYK/VD9jn0/BCwo6LDHnZ3jbs6zX6GG795cughK/joxY6IgBsB/tfsDSrJhjeuKar9tGgH+RTNFIbl2QYz7bueC2X2ztRSZFD6HfaGh9ht+wbl+42AC9CzfUm+dVxvqk/dztIFT/XPrNh+SXfumX7PKsvKSffP01779p6M/76CF5fWPJfMbSxuty6KNZG/+vy7fP+9sQsXz6Cfs+h1rv7MSB5nqffVnUejOMhnSz3aF9t3/51xa93CeH7LNR/P1rlm94perAxKz9t7Ny1wHzFADsebsfsDz1qFxTF0tVDcsdPxfRp/5zd6hXdMX9rERcdhM8IvepC7LngNx1f/JF8tBHb06vvXexYYSgP5zA8NRdppxgr/OO+X0H7Z+WPq9MY3lg9YmmGpqqkS4vPxsdBDxwm7xX//c/viqXzBOdqO9yt26uviTXftP7F5d+85oJdg7d3U2KUHqPfCi43iee/rYKe6L3Wbsut/vzFa/RffC+jAHZkPPLxYH32uDkCan4QYgf5GbQCmKW5Nuv2ycBYI/LRUrYE9+zPUcfKIUudg9K6QOmeSEv/vt0TYCmz3zIXBxe3/i2d0E4+KEOQcIhuafvox+hnk/bQ6bXdd++72VUVMPF6yl0l+Qex6BL8uhDdt+e1w0u7HkPlOQOE5kGzy3dw+8bSH2iPPIHumyq9T4dHeo0g6HXUjZB/e/y8vec4OkJ+Z4OuJqN2zQOyF2nwudRa+l7cNDLdn/+WdPIvlkdRLtPBXf/7C458Pq35dsvU+8DQLfyMYfl89/zgooDd0jJTUnwL4yvvyi1p7yn0vJ6EHXD5FHvQqouox+Ku3C/rC4m6iJ6YOKX06dEdMPvYdQ6BlBD4B+81zTQ5O/d5jUM/ZQPveie6E50T7UfzDWX7D2O2I9ek1edOkGnZlU+b/8YQH2iR1c+pEd1Yv+tHwzpesRL2QmPAsWJDnDeK7elrouSU8Ka+8XhBXWtTppH7tcjlNkCue62+5I8+kJw3XuXTv2albvk27L00KPy6KeX5Nt/776eU+JICQOwH+Vk0r3tnQulJDR7LH9YS5liYT3wObnHaVz4Pa6HPhR3oXhVHv1fvJSIu/7ZYFMx/B7GbA2SfPKCQsVvGOqAzG8oNUeTBuGQ3OcHRnrp6g47GEpP1eRFc/54ZSB69KDP9Ynmj9jG/NsHf+eXTePRnXOg54Xklu08aQVXOuh5SB7NHMh14T+8pupadXTem6JTY1iZzpv75JDulFHBildmvBHhZ0WPLGeYLxRCShiA/SgnAUsrqGilcXSfvuE3TF56wV4o/B7Xg/fEXyT83PcDd8kv35SevwPy3n9gHw4lr8f5pW/oi2ba3PeQzClhTgqYuzQbBNj7dBlojcLpid663IQDl37WJ9qDt5lZCPLaq1H/1p8v15rTkUV0wz04gpQsOSUsNqB3Oxh+KXuw0vV2+0GnPzK7F/n7NmKu0xOfdve3nc8SU4e1RlPUkmbUGgD2qNwELM2RB7+3vuv0jVZqht+YaTWCkxvWT3zaawgNPDXMeF1e+w/24RAy+fwvPyuVz3spHpn2mQoOH2o2lGKWDEGIuRvcqbvktW+ofxc1GRp7jD9pORi4BIKWvtUnneibAHj1y0vfqKgty8BvuAfSQ/3Us3R3GvMavx2W8Lnkpm62LV+Wz91m3xenD9ttZJqnM8QS97ddwkFlQh35UBdBMQAMu/wELOqSWvuhaWGYoKLr9I3P3JeY19s+EdelGkImlUmnhn1IxxT919y+LD2oOaMuwPcdfEme9YODz1dkaUPkrlPdpzn0w3tvs0fW9m5yYd/rvMDFn3AfTPnsU32SSAcrdh6BCd69Z9Nrn8/x4O/c4wU//ujwILgjKzZ18yUd7JvnHpJHXzVPJejTdmcJboZZYCQrvKSbsxf9ez+zcscPdXpYxkAZAIZQjgIWdRn89y96uc0fuE/uM6Mk2VMs/HkVgfvXm8Xm+4Yn4oapi4vJPT9wSA4lBD5d0T1tdli/u9uq7j5z4fyoyLOhi6Se9Pzsyzo15WYHLa3bVx+YuM/p8cWepH9HJeWcpX7UJ75Lr75m/tsMirUH1Ln8H9Ua4m5znIZuzDpzSfRvo+jgIXvw07tmozhN6lFP231I3tvvujXPEkdYklJgNR0Ut/Zv4Jrm73/m8AHYB3IVsDRTDfxgIXDbzJDw/AdTadu0hMg89VaPa6ffZPFTw3oXyi33GwKqgTOcvf8PyqFX/1d1sYzu0QvmZkdo/mhfhiXxYuyn47wu3/6GvmnCIbmPi/fed+AumXXKiG7MaS99L1Qqs9Qnndh5cIER2qeekEc//VDvaYihHvg0jf7oHvfkpdOP1jZ/BNOOunTUxXYbHW5gsFe1d6I5S1wKbPMW0hEjeM3OtQ6dcACwB+QrYGmmGnjaGiAd/KxNS4jLU/d7STvfUvgJedb5XYf+sbcfHdp5Fpfkic/30MRIM3clvMReyHXwo9NxXpJndZD0ef3ZKtA0jdndTU3DAOky1Nag9s6r9gZzb/VJkP87I/loHAZ/YT/dkpdOktYt5/dTuNKl5nyhiB/bDN0NEwD2sluKxeLb9nHPSqWSvPRSyt457Jr3v//98qMf/cj+NSA2/U33Kva1oaQDFfur9rEpKM3Uu5t4q1ZkclPKYN/p39W4Tw697v2uRqdS/cgftG4X/Or93d862P2cm1KWnXP32ntn+7vd9vyVftcLA3Lo0KHer2lOKnC85H2sR9T8kURX3+tXALiJdB1bq9XsX8kIWPahoQ5YsCcMZ8CiNANmPbLHZOdM/H2XMuDLg74ELACASAQsSDS0jUXsGZRBDAMCFgAYnCwBS87msAAAAABACwELAAAAgNwiYAEAAACQWwQsAAAAAHKLgAUAAABAbhGwAAAAAMgtAhYAAAAAuUXAAgAAACC3CFgAAAAA5Fbff+ke+XfLLbfYRwCAOG+/3bfLIwAgQtpfuu9rwKI+S+r1uv0LecVxwm6jDGIYUE4BYHCy1LGkhAEAAADILQIWAAAAALlFwAIAAAAgtwhYAAAAAOQWAQsAAACA3CJgAQAAAJBbBCwAAAAAcouABQAAAEBuEbAAAAAAyC0CFgAAAAC5RcACAADQk3lZWV+T6kn7J/rn7Iqsr6+oPYz9LIcBS8JJf7Iqa+vrquB6y8pZ+zx2h65E1qoyY/9smZHqWus4rV8MVzP6GDuvZ6jkZ6prEZ/nC35uW/kwlV7C65G87xL93uD61qrteyIgQ/kNfM/Qdkfv85b5i53fszckHJtO+zrjPm1JbpSY4xb7maHzIu06Y8+z0PpSX9CTyjT6xZyHHeo27/jRyL1Zkq8fQd6xufmN5L6t168DI+sO6gAMnxwFLP7FfEqK9pkAffKdLsn25UmZnFTL4zUZPU5Fvyv8ivB41JHSx3FOxjcXveM0uSi1kanARWKmWhbxj6NeLm9L6XSHCto2MOdKBftEmG5ITslozV/vpGzc7lTUepuPj0rtcX+ddSl2KD9eg2NOolcZXt+qbJfm4i8AmcrvjBwdL0j9+oJ5XD0msmq/k15Wd0oyF3fRVespH7aP97DEY2P29bhs+sfa7Gv34pxxnxod6idFNzTmStutzz0vctQpD/MX1fburNp1qvNCOqwz8TxrX99ibVSmOgRByWUa/VeQ0oNxx3hepjgQ3UkI4uO59Won+tiINBpFmRjqRn1D/a8kU335DsmdNcCg5SZgaV7MVeOiYZ9zzdw7LoUbqzJ9zj5xoSJrN5IuBhgMVWnZhvdiLeJInZ1SjaG6rFWW7RPLUjmvjunhCfUv7TOVcus4audWpZZ0YXCCjdUb9rmQ+Yte8FBurldkoVJRa/d45WdNKhfsE+em1WcVZPze6EuebgxOjdRkUQUidftcwNkJKTZqstRc34Ksqv1RPBbTE56l/J48KuOqObtq3qv2X3lafXrLwqXg/mxRjepT6tjciNziPaPTsZl/sBQ81mpfL+ljc6RZAjPsU0+n+kmX0VkTPDifq9ZbaZbzeZk43JDaJf/V9vMiqMN55je+LrfWt1xZk3ohvnHSsUyj7xrqXIw7xrrjZrRW41jcLIF6tQNTv2/K0pV6bJ0+KPr6OOnWIz3ZljVVz4weJ50Kwy83AcvCiUmZPBF3ikb3jCxcV1X9yNhNrUywINOTk8GAI6yxE7wIX9hS1eaojHXbM6MafuXJcqsB2sZrDG4+3wpWemUuGuVWwBM2f6Qojc2rgdeXn9+URmEkogc+W/nVDW4JfXYaM9VZ06ievm6f2KM6HRutsR1sBi6/st1TXZFcP6l9bwLSjT41MrQO55lufBXqshF4fUE2VEA/env0t0yz39Bn26uydqMo5bZ0UV0nqNP8+S37t0v3ZOuRMLsERuG811bO+iN+3tKejpr0GR5vtK31ug5ow+8zzzU/J9i7bl5bq8q8+x77793PjkqVDaw7kP7kfS/9b8Lb5zPP61FHFZzP6ddSjrRkqVeb9fu5DakXxuVo1LXLHwG1S3Taqfpubvqp3dbAfg0fm8DoUef90ZHpHIsqg+1ij7f5Dnp0uSCl0/a139ffPxgI+WWitSZdDoPlJnjsw+XD/77ztnzHjOj4+z7LfsDQG5JJ90UZKTRk50X7pyuygYj8KcjIHfZhmGl8xRzfNE6OqXBoW7bucC4MoYrO9D4fnmpdVFQFPHXYHQnKYkbGRlRb5JWofxsVmGUpv52DL9M4DgeFfg9/QqN630uoKyL3aQbF0YIKkiTQiAxeTPUInEjplNMQOaUaULXV7oKcO0Zit7cwSo2YJ7pjojB+1GnEKXokescZBXTMX5yQDZvmp1NNA/WWVTw+K3Levuey+vzSbKhRmPwZutHojbbZ91yfaEu31Y3PufHN1nuiUndV0FCWpcB61tbWpLxtU2Uf14U+vG1q3eKnRkanMhZKczJx3a5Xj2o62286D9R3lobd/lRBeJZOLfe9uhMgYiReN5jdFN/JRdk5FpUuWpSpIxvN9+g00Fm1f+ZG1+xz0cc3LGl/pLFwQqcsB49DWOLxPjftbas0bFp1WSr/8qpsBjIjvCC8IU4961+bbTlvK3fqM3UqdTioLZTKtnxHdFS6+57r3b4yJAFLjBd3otMzsHtMj5SqlJ0KSKdrxTehvNQXqS0ljKB0YBpvo1JuXhj0RVBdJwMXV91jvSpy3DYmj+s5DP0adrfMSFIGUeVXpyK46UxhKtCa07vrvHuR1vtQz9no8/cZUqaBGLg4q/0TMw/EiNynWXgBrIxPtBqRfuPNOQ/0CMfi5rjXK7zuzfNyUxj7ob5NjZg7OuU1MI9ABavHirFzKRZOuOdx9KhZw60vTUptsFGd+BmqwVc+XJdVt6FvUmTtY8ObwxE4J6JSd0NpsXo9BdlsPXdBN2qdbfPX7TQ0vVTG0ChGW/qsavo3Uzq70KledehUPZ0OdtW+16tPppxrido7erSmtuiMgNoUT/tXi/tdl+XqZkMKBbdjydtnHb9bz/tDXf90AJI4nyrF8Q5Ylq0dt1wdlXEVhK/ttP5NYOQ5qtyZ7WrfvxJ7rPz2grvvsV8Md8CiG6r2IfLCCwx0r4nf0zxxfVFVfBEjDHaYOTz3pCvqIrAWuAguBSpbb6jb7XXckAm1bVl6qToyvUkZtJXf5IaMGUo3c3ncXic9hD4lcjkpZW6f0b2BpnfQBqf6uOteyYgRieh92qXNVecz7IW42bOuUyPWZbbZGz2pHs2mTmdJS4/0IG+8hmqzgZliLoUpl7b+nDqsqrfQqFlwdNdrOIbFfkbM6Fwg2DV1mZ/+4y/ezRriUg418xk7W06DNLRtps4rylTzM/XipRq5I/DhlM7eAvHkejXIS98NpPvqTji1he5IQuQIe4oOK5OaGtr3ab5bX/aHDkBGYkZmujzegdFDdWxFbad+zv83uj5q7veYcuft32BmQvj7ekalrK51fWkvYCgNScBSl51GTEpRTFoEdpMOWvzAQOfh65So1rCwZgIIO5F+MJWP2/tj55A4E5T9BmV3EypDPUsBwe/pSVl+YxsyOijxh9JDDWtzkwN1YfBHjvTi5Hf3NSAbJiaFwS+D6rjri2WgIZWwT/tFj6D5aWhtN2lQpUgH1d3ewcf97JDoiz12k5eSWjajfolzKXS6izpvmylVaom70UisfnyGUQ/cSc9feq6v/VSu0DKwHvMUAWKTSU/W1Werw82/M2BPIzy54I0CjcZe87o43iajwquH5o+Meml0qm4SE8To1LrwPLvetaVXYt8YkoDFayCGK4yoic/IHzPE7k5INik4+o5KfWooRvTQ6AZpqxdMB0zes20S5jUk0T1c4YozfuJ1uvKr/31UQ6Z5h6qoXO1Aw9wuTn43w+Zaew9r4j7NzKZ6hOeOOD2KM7fHj70l9WDGMr254XSN/t98Av3iz4WomkZc3Nw5rw5Z7SkoSPUZEfVeYHSu1xulxEkItAclrl6N4u+7yDo1dLe3tvM26wj7btDpZDs6ZTt0BLo+3rpc63pI1T0jNo1OpwHqeSx6f7jXw7hjrztzIjv6wrZlrZzidvDYs4YmJcy77ajXQ2XYfMjuJk1jcFTjsOpUJv78gObtXL3GYyNpsrHpIYy5O0gkrzHQmtCs1qLvmNXsVbN5woGeJTuvwcmvzbLO9lvI2hzg5vf0UoD8EY7O5df7922NTfM+93a46Ejts6rTkDfBidvDmmKftt/tJpm5Q1xgIqxXvupXvIDIu4NccDTFlNFCK8AwKTypL8Ttt9H2OgZaud9ZvwMGS9cBUioFO29CTMqQ2zBW9adO58qi42fYuQlTTlnTZSW4HlunhibZz18MTbrPysxpUesOlEt1TbiYsZymDnxi6tVI+r3td3M07D7z7rS1LJUrEfPkTpdCKb755E3AL4sK4xxpjnd0poDuvBs9MiGjzRFs3YEzKuVTag3uaK+9W1nw2Hv1ZGJ7IEDfkr79t92wPwzPHBZV2MtuXjqTjHNKVSivTLSG083k9vaRlOCQu116qID0nWPMj//ZzzJ3O3F6z/XrrQnPerE/+tj1XUYWZPpx7wcJ/c9LnEfSqfwmTgoN5xZ7y75N9+pE7eutI639ZO5I1DaS0ud9qo9vW3lwRrj06+5NH9TS6yijnsTfVua7Ls8YONNY79D5YCa/O3M8jmxkT+fq+Bm60efdFMIvi3puVfj3fkyd6n6OWiau93rNtQ1O3Uve/NxZkUsZRzrV+WQav/rfJwXlGSbbez39cSlMdhTVH1VX+9i7sYv/HfT8SH0XrWGg06G3pRCKrjofby9Q89KPW517ujNGDhdl2wn0dNCsPz8cKIav0349mW1E0S2/PQbQGCq3FIvFt+3jnqnPknp9OE7Z/YzjlDd6PsWcjFzZPylclEEMg/1UTvUInwnu90zQu//qVWDYZKljh/suYcBekGVSKAD0nTfnL92dtIYE9SqwpxCwALtNpwv1ZfI3AHTSPmfEzPMq9P+OTruKehXYUwhYAADYN5alcklk1pmr4N3emzmhAPKLgAUAgP3E3ATCuW0vIxEAco6ABQAAAEBuEbAAAAAAyC0CFgAAAAC5RcACAAAAILcIWAAAAADkFgELAAAAgNwiYAEAAACQW7cUi8W37eOeqc+yjwAAAAAgXr1et4+S9T1gSbti7B6OE3YbZRDDgHIKAIOTpY4lJQwAAABAbhGwAAAAAMgtAhYAAAAAuUXAAgAAACC3CFgAAAAA5BYBCwAAAIDcImABAAAAkFsELAAAAAByi4AFAAAAQG4RsAAAAADILQIWAAAQdHZF1tdXZN7+CQzOjFTX1mWtOmP/BtrlJmCZqa6pynG9tVyMqCZPVmXNec/KWfs8doe+oK1VVVUT5lU+8cdyXlac47i+vibVk/alDkw5iSobRvBz28qHuQAnvO4KvTf6ewbX17GyzVB+A98z1ba0zF/s/J69wStnkfux077OuE9b9DGPL6+BeqztM0PnReI6Q+9VS9T3DNabaRuXCfsNfaPPw/3VAPPqw7jvbOqlZln1lnAZzL7Pks9HX3Dd6a833bPnb+y1qj/87xV5Lsden4HhlJOAZV6mxjdlcXJSJs2yKLWRqWDFpRsgp0uyfdm+5/GajB6/GRUP2viNweNF+4RLV9RzMr65GDiWbsU9Uy2L+MdRL5e3pXS6Q2PLNjDnSgX7RJi+cE3JaM1f76Rs3O5U1nqbj49K7XF/nXUpxpYf9R2Oiaz626eW1Z2SzAUuPuH1rcp2aS6+EZip/M7I0fGC1K8vmMedt8Wh1lM+bB/vYd6Fek4ii4PZ1+Oy6R9rs6/di3rGfWrYBog65lGlXtPBw1xpu/W550WOOuVh/qLa3p1Vu051XkjCOs9OOeeQWiLKS3h9i7VRmerQQEncb9h1gY6KIaPr9WKjITJ+NLYMNpz6uf287MLZCbXOTbl6wf7dxjtvy9vOeieXRO4dzn0cpaH2efFYfwKTYS5/2PtyErAsyHS5Isv2L1GPKlfqUnAqvpl7x6VwY1Wmz9knLlRk7UZBSg9yct1cqqFuG96LNXVxClMNrVKhLmsV/2iqY3m+Jo3DE82AZLlSbh1H7dyq1BpFmUhq7NtgY/WGfS5k/qIXPJSb61WlqtIqU175WZOKf2E7N60+qyDj90ZV82qby9OqVLYsXAp+B+9CWZOl5voWZFXtj7gLR6bye/KojKvm7Kp5b4ptaVIX51Pq2Nyo27/3Jn1RnRqpyaIKEqO+6fyDpeCxVvt6SR+bI80SmGGfeprBhmpkRZR6U0ZnTfDgfK5ab6VZzudl4nBDapf8V9vPiwBVPt2y7JeXVnm1Qe3l1vqWK2tSL5RkKuY86rTfgO7Z8nhlSTZVIB5XBgNMmRbnvMxu/khRrdNtO4ToujRwPdLUuVdxz/5B0HWMCo5ODHo9yuaS6XCZ3VejediPhmQOi9vj3LJwXV12R8YiG4gYFBVcTk4GA46wxk6wQXRhS7ZlVMa6HQ1TF7byZLnVAG3jNQY3n4+9bPWdvlA2Nq8GLpTLz29KozAS0QOfrfzqBreEPjuNmeqsaVRPX7dP7FE64J0MdHC0a2wHm+TLr2z3VFcsnEhufHgB6UYgCBoo2xDbCJyHC7KhGoCjt0d/yzT7DYPipUutnPVH6ryllUXgPW9GkA9Pea87Pd2m59v+m3BKk3ltrSrz9j3mM82I9IrM686emH9nhFIjux7taJbHZbm66XYOJKtvR4b/6ZjR5PA5EKXztSfz/jX7tX1/mhFMe9z043B6W2A9odHQpG3oRHe4SGkqtsOlxSuHzfU0y1h0+Wv/Dn45tn8qZrvdUZlAmdNLKHvCL5t+2XP/rcMbDc62H7C35TZg0Q1C2dmyF9eijBQasvOi+SMosoGI/CnIyB32YZi52MUc3zROjqlL0rZs3eFefIMVnel9VhVxs6JVleWUutgFe97imQZpMxCbkbERke1Xov5t1MUxS/ntHHwFt8Xye/hvRo/esEqoKyL3aQbF0YIKkiTQGA1eiPUInGpTnPIbKd5omNRWUwY5ulw4Ze6OkdjtLYxSI+ZV8fisyHmbmnS5LoXSrK2nvB55M2p9w6YN2nNZNwjn3JTpqBTaQknKsmReb43MFWXqlMiS/Xd6RLlV/jTV+Dyy4X2m+VydJtshNTeGG7CbjpuE0UqXd950d9al6iSwI5Ol0/EN367274WrstkIj9CHR1GDdAM8LmU01TYkUd9zSaeExjT+PTrYmHLSsd3U++jypzvV3EwXnVkw2mgEOkUCx1AHK27qs1pMqmrb/DpVNv2yF3HN0vvKGw1O6qjEfpPLgEWfvLox2bHx9eJOdHoGds+5DZOW4g5P63St+CaUqkRVBSe1pe4rJtN4G5Wyc/Fd1I3DQIWvR4ZWRY7bxuRxPYchmBYUSwU3c3oTz3fonTYjSRlElV+dauamM4VFboveh3rORsrvs8eZi2yzIaip/RM538pKe3xjeQGsjE+0GqM67UoFyG7vpB7hWNwclzkT0HjzvAJpX7F076c6h9yUwhg99Vhj4BpuPWdSYePSUn3zMhUum5EptFGdL6rx7Pw7k/ZYGJejzfNC1YnuNVbX3V2NhOttdEaQTWO+KOXQ6EKbjJ1GQXrUWu2XmODApUdHveuBPu/CDedu9683khRuzMfOpzGjQep4uHW0CjK8lNG025BsubKkApByQmBWDtUhKkgJpd630dcop6Nn/siobF7ZdOYpBTvYTHZAbTFQT5ntaisP8YFds/3HaDBCchaw+MOSoVzwOLqhah8iL7zAQE9A93uaJ64vqgorYoRBXbD0JObw3JOuFLZlzbn4+pWkX+HrSnB9fUI2bEAzObkhE2rbOqVAmGFpM38mRU+PGenJoK38qvJ/rNiWOuaL3havMSuX6YlqOjdteyi98meOu557EjEiken4drK56nyGOg90D7pzYdepFLO2l1YvS+qvjnfxMekVdv5Mpw4cRfd2Ir+Co7LLsrVjH8YxdYoeIfDLsl68myYEUv8iR9u2Zcst05EdKl659D5XdywljITH0Q11tfZWalZEY94qONeFTJ1GYXqupCRNtg8y6ZDqnFu9UZQpte5mvd/D/vVSgFsBYOJ8GtOpFhfMpNyGjnQAouq9wChai6kb/HQvf9EdOUlZKjb49K6jumNGlalz6jmx/0Zve/N7xWUe2PIQGPkNlU3f+Gz69h/2nRwFLLritBfmtsJal51GTEXaQxoHBsWb5+I3zKbP6ZSoYAVlAgg7kb7nYCWS1xjwKvz2Ccp+gzL+7ipe8Bw9LO1+dlhURZyy/AYm27sStsXc5EBdjPyRo+ZFqGR68rvOSR92OmhplkF13HWDoZliqiUd3z5xeyfbbtKgSpEOqpMmKOuA3k+vCAcroZ5PV7cpNsireiuNyFl6rTe9Tpyy7Ph30+vyZgwmfVuVRB0I+HWQmQsRGM3xBO4S1kOjtONk+xhmLlpb6luX+9emm3kjZHqkIc18mjh9Osb6ZjI78XVKcP/7S9Jx8IINc63T16cdnYKnr39eEKPT8rqZbxlHlRppqLKUZWQJ+0dOAhavl9jcIjayF9FrIIYn8kVNfEb+eEPRTq6xScHRvSh9aihGpjK4vT06YPKebRPT6GveFSpmWFqn3oR7EONzqtOV37jKP3FbAg1zu6gLsroymXzoTilE+4OqX0IjV52ObzZRPYiK6VX1AtKZ2+PH3iIDXz2yYgP6yGNoesvDF/bO858wZHq9YUksvxOn1zrYzttoBj3+okfVO6W7davH4MC9XvS4f5tzPEwqb8J8moQOhn4fY536NxoxF8lcs7qY36ZHknQK2Ly6Pm3bOlR/b11vFVW11qpv4jryvLKWpiOlsbkkZRNQMtke7fIRsLTdCredd9tRJz/T5IR2m/+KwVGNw6pTVfrzA5r5ql7jsZE02dikwWSpsPTdkYITSs0ds5qjFd7dk4KjKXZeg3+RcddpylZ8jq3WfgtZm4fc/DdeqoU/wtG5/Hr/vq2xmWJbEKL2WdVpyJvgxB25SrFPTe9zp3QthzfR2Lmpgy1ffi+wlz4S7Pk0ZbTg5H/r9DQ7abbt1sxt2m+j7XUMtP5N1u+A3dd+Nztbt4UmYM9fbG+QZtPeiZI81zCa99srUalOdn5EqjtXZdPWAZZEnesrobk0wW3ucf+aOZvjMpuQymvY1KrA7yQ166k+H2M7Ab98LNhJ4tdRgbt+hfZP5N0UdUClgq0J9XHNtG71vbfHZ1U9Gswo8O5WFvw9Mq+ey9BWa6b0ErQgKEcpYcEhZW9xCqw6CctuXjqTjHNKXahemWgdQ5On3N6LF8hl9pfEO5wk00P95sf/7GeZO644vedm4mVzwrNekkb0tHBOsbe0KuIFmbY/fOZ/XuI8kk7lN3GyfadtQYDa11tHWvtpSqJGUvq8T/XxbSsPzuiIft296YNaOo4yhvPN9eI0eHRefluZTzHPBTmmJ1ur8NocU1sfmrrNzr3wy8HE9d6vfQsnvBtDtD4za0qY7TmPy3IwIxn9Tu9JP9neUOfdqp4r5uy7qGtD9/vXCzYKkam8Lu8uXO75un5K5Kr9N/0+xjrddNMkWDlsHaUDCn8dehtW3UAiovx537EoxRE3MK3Ljvr8toyCtnrQ7u+s6X8qaPFvlBC+NTT2r1uKxeLb9nHP1GdJvd5NFixuJo5T3uiUyDkZubJ/UrgogxgGlNOc0fO6ju0EAg4AwytLHZuzu4QB+1DsZHsAgK/byfYAhh8BC7Db9DA6PYYAkEinTnEjEWB/ImABAAAAkFsELAAAAAByi4AFAAAAQG4RsAAAAADILQIWAAAAALlFwAIAAAAgtwhYAAAAAOQWAQsAAACA3CJgAQAAAJBbtxSLxbft456pz7KPAAAAACBevV63j5L1PWBJu2LsHo4TdhtlEMOAcgoAg5OljiUlDAAAAEBuEbAAAAAAyC0CFgAAAAC5RcACAAAAILcIWAAAAADkFgELAAAAgNwiYAEAAACQWwQsAAAAAHKLgAUAAABAbhGwAAAAAMgtAhYAADBk5mVlfUX9P4D9gIAFAAAMxEx1TdbX19uWteqMfUeSGamurcvKWfsngH0rPwHLyaqsdarMQu+hEttlZ1dkfa2qLilh3kXGP07rF8N9YLpnzHl9fU2qJ+1LHZiLX9vn+YKf21Y+9PYmvR4Q2sbIdQbf0/ECnKH8Br5naLuj93nL/MXO79kbEhoznfZ1xn3aoo95fHkNNM7aPjN0XnRYZ7ChF73O4HvS9jbTCLxZzLnY4RjuFaYshsq0/v5z45uyODkpk4FlUTbH5xLq8jjuOTQlRfusx3stXSAEYNjkJmCZv1dkqVmZrcp2aS54QdUNkNMl2b5s3/N4TUaP7+0LQG75jcHjwcuFR1805mR8c7F5YaqNTAUuTDPVsoh/HPVyeVtKpzs0tmwDc65UsE+E6YbklIzW/PVOysbtzsVTb/PxUak97q+zLsWE8jNTHZMNf/vsdwheCMPriyizrkzld0aOjhekfn3BPK4eE1ltbsukrO6UZC7uQq/WUz5sH+9hXkNwTiKLg9nX47LpH2uzr90GesZ9avgNpXAjqUU32OZK263PPS9y1CkP8xfV9u6s2nWqMiVJ65yXo7LU3L6ocyS8vsXaqEx1CIIS9xv6yCsv5e1WfTQ5uSRyr38Evdf3TNCozrlZHZiUK7Jsn9JleOJwQ2rn3ed8y1I5X5PG4YlAmY4zertfqtW/K/v7c1Xq9lmPfk3Xw7O0C4A9KDcBy0LFrdQWZLXWkOKRVlU2c++4FG6syvQ5+8SFiqzdKEjpwTTVHfpHNdRtw3tRHaM2Z6dUY6guaxX/aLZfmJYr5dZx1M6tSq1RlImkxr4NNlZv2OdC5i96wUO5ud5gmfLKz5pULtgnzk2rzyrI+L3Rzbtl9W91uOBR3+FKXQrjR1uNwbMTUmzUZKm5Pltmj0U3GDOV35NHZVw1Z1fNe/VFeNrZFrWmS3EXetUIOqWOzY3gZXyv0Q31qZGaLLY1WDzzD5aCx1rt66VAfZJln3qawYYKfiJKvddgM8GD87lqvZVmObeNt0v+q+3nRdCCVJyy3H6O2KD2cmt9y5U1qRdKMhVzHnXab+gjfQ4H6kFNHfOKW+r2ClvvXAkHJguyoeu4U1F1ovdvCjc2AudhG7MfJVj3JlqQaR3c0y4A9pzczmEpjhakse1fVt0e55aF6+r1kbGUFRn6Q10QJieDAUdYYyfYILqwJdsyKmPd9nqphl95stxqgLbxGoObzwcvl/00c/uoyM5W84I8f6Qojc2rgQv08vOb0iiMRPTAZyu/usEtoc9OY6Y6axrV09ftE3uUDngnAz257Vp1h2f5le2e6oqFE5MyeSK+aeUFpB0aXz0pykihITsv2j9tg3gjcB7qBqLbGx2UZr+hn2LqPN0BY0e5isf1iFdwpCWYRhZOcfJGZtaq83bErzVKa1Kymv8uavQ2mMK6cjZ6lCe4/hRphpFl0aPPm8XNcZlz1ustdhQ+4Zwy22s7x/QI6KzZD942e58RM9p5bkPqKUduAAyPfAYsqkIvH3Z7p0IXa1dkAxH5U5CRO+zDMHPBizm+aZwcU02Dbdm6w52XELxgm97nw1Oti/PZFZkKlLEk8zKlYohW7/iMjI2IbL8S9W+jGilZym/n4Ms0jsNBod/Dn9gA2OcS6orIfZqB18EiTmNKLYF0Lz0CJ05vs9fDLLXVVEGOTqMsuqNGd4zEbm9hlBpx1/kjqKcjAgfTAbMoeoC6blNE/Q4gHSx4o2CttCedahqel1EolUXO69dtR446/6ecFMLFQFnTIlJmj7SnBpr1i5+2mC7N0JTFhGDdBMrm8/TIXr2ZwuiOhrdrba/eNwsn/DkvxYSUMF9ddpJG7AEMpXxOuj+l57MEUzYivbgTnZ6B3aN7twp+b5hHp2vFN6G8XjSpLSWMoHRgGm+jUj6yYS9k9oIdyPnXI0OrIrZHc/24nsOQVMbc3sgJ2Ugc4bHMSFIGUeVXp5q5DdMwFWjN6d0VyAvX+1DP2UhxzuwDeuSqEMhjV/sncr6VFblPs/ACWBmfsI1I25hSAbLb0NQNt1Zvs9fDnNRoc3vMZ3VjNEUwWt+mRswLM7pg6iF9DNOMVHgddauBUTCd4qTL81Tw34frCBUETTtlKTza6wW8q8GU2ROhBr+/fqeceWmG43K0rROmRY8+B0c03brTXfR1oChTka85+8e0BabMPMfW9uo0zkkVSgXnQ0Zblq0d+xDAnpGfgMX0OtmL/XmRWVWJdbzbh26o2ofICy8w0L2C/sVo4rruTYwYYTAT6dvnnnSlsC1rgQvtUiDn32v86cDDb1BuyITatvhJr17qm/vejhdKM9KTQVv5nZHqsWJb6pjPpGqYuTxu8KRTJPTFPUVAtV+cm7aT1P3GkDrueu5JxIhE9D7t0uaq8xm2odnMvfcacSbwsOVqSf2VdKewVs+0fW+Ku0zpkR7kh38MV294DfXESfZxo2a6Eyg0chtOeTTcTr/TJVW3tP5NMMXap0ci7EPN1EfhgEIHGQmj40p7mXPrzrRLcO6XbgtEpR13Ss10xaVGAhhO+UwJ0xWWamBIs1dJV6wxlWYPaRwYlOAFa/qcTonali2nQWgCCDuRvudgJZLXy+ZdtNonKPsNyrhJ8kH6++ge87JtMLqfHRb8np6U5VenxjUn27u8vG0vVSTUsDY3OVCNBn/kSC96NKFQMj35iQ2kvUwHLc0yqI67bow5c5AS92m/6BE0v5e77SYNujGrgmqJnyTvMqMzukr0JxO7nx0S2ZjFrjINbXNnwhQjLV0wgffpEVnzy3zczSE6UWW0/RbEyXMW40f19DmWEGTrACvFXe06dlwC2BdyO+k+yGsguncN06ImPiN/vHQEJ8fZpODoOyr1qaEY0QOpL5ateSY6YPKebZMwryGJvkiH71wTP/E6XfnV/z5qsn3zDlVRE6YDDXO7qIaR3/BIvDnCvtE+cpW4TzNblqubqjyE5444Pebmpg0xuuoJNumH4Tz9wd98Aj2IrKcccUGoDnYjO0J89g50HVJC2+c2herFhCC4k92ZN6U7kqK+c9IcQwDDKh8By8mqrAR6UVQDIzQh1bvtqN/Drdh823STpnHzqGNXdRrm/vwAZ8K6bjw2kiYbm9SGzukvLe23zzR3zGqOVnh3TwqOpth5DX6AEVinei2U/mXm4Th54+23kA1PzPdSgPwRjs7l1/v3bY1N8z73drjoSO2zqtOQN8GJO3KVYp+aEcBOk40dZs6Ae1MHW77q9lav3pyC4GiKKaOFVoBhesltuZuprgTLv9rm2UD5ar+NdnhiftbvgD5Sxyt4TbPHp7EpV83xiRilvaAn6hdDk9y9cpRYX9oR3NYt2r3rpxuLePWPWz7Ve9ZCcwsvXJXNRnj96n0Xk8uQKduxd+DTNx5wRn/dxaStDYIOxKLvWgZgeOUjYFEV9arJ0fYrs4gJqTpNzM1LZ5JxTi1L5ZWJ1rE0k9vbR1IKzhyX5tJxMmU8nXJhfvzPfpb5dWWn97z99pr2jjmR+dALMn3d+Q5qMXfOCbxXvcf+IKH/eYnzSDqV38TJ9tEX/X2b7tWJ2tdbR1r7yRy7tpGUPu9TfXzbyoMzwqVfd2/6oJakUcblinrvqdZ7vfISfK9OE2sr8ynz+zFg6ngHr2kRdZIKIsTWg82OjVA95pej5LRZ7zd9/M9aX58VuRJKCTP1j05J8z9Xvee8d6eyFj2x3f6gaXP96n2XOoxC6kBH4ibm65Gf0Aiwv3SbttaJqUsHeYtxALvhlmKx+LZ93DP1WVKvkz+ddxynvNG9nXMycmX/pHBRBjEM9nY51aPAocC6W/oGKvoujYGA2avXwrdODtCpqwlpmXrUceqw/SNGI3DTFr1OHYz1Kd0YwEBlqWMJWPYhjlPOnKzKmr6Vd1/mUwwHyiCGwZ4up7reMRP1+5Gp4AUnnW7VPVh52AYAWWSpYwlY9iGOE3YbZRDDYM+UUz2n5t6rzm+1eKMr+rdZ0t4mGAD6LUsdOyR3CQMAAF1pm1OTNIcPAPKHgAUAgD3O/SFSvZA2BWCYELAAAAAAyC0CFgAAAAC5RcACAAAAILcIWAAAAADkFgELAAAAgNwiYAEAAACQW33/4UgAAAAA6CTtD0fyS/f7EMcJu40yiGFAOQWAwclSx5ISBgAAACC3CFgAAAAA5BYBCwAAAIDcImABAAAAkFsELAAAAAByi4AFAAAAQG4RsAAAAADILQIWAAAAALlFwAIAAAAgtwhYAAAAAOQWAQsAAACA3CJgAQAA0c6uyPr6iszbP/NjRqpr67JWnbF/R5uprsn6WlW9G+3mZWV9XVbO2j8HhGOAfshnwGIqyDWpnrR/+05WZU2dXOt2GfRJhg70cYqphOYvto5T+opKV54Rx13r6th7F7To93oVtf95nS56WdZvKueL9vJuynLr33XaF2a/UbGn1MfjawWOXUj+yzTyJFBe/CWmbO01SeeRESr7Zrkp9Z53/vR2HPy6JTqI08c9bX0z3IIBYy7Ke1zbcUDCx9qU+9A+aL0e3F/ILocBizqox4r2sUNXcKdLsn15UiYn1fJ4TUaP37yCCYd/sTkecZwUfRJPjdRkUR8ntazulGQuseKyF5H1KYn8xC6OvVd5zkmpYJ8I0BecKRmtLXqfN7kq26W5+EZgpvXPyNHxgtSvL5jH1WMiq3Y/dNwXaj3lw/YxEvX1+Go2sJyL/sAhKNPIo0azDNrlhK4XOuvY4M81tw5MUm+vG4ems6YhjUZRyn1pfHp1xbB1QsxUZ2V8c1HKlWX7TPflvTsJnUG76caqsw+8a48XpCxLpaz/nqXd2qXcBSz6JCjt1FVVFjRz77gUVEGYPmefuFCRtRsFKT04rJX6sFKVhG1oLdYa9jnXvEwcbkjtfEWdnp6FSzVpHC7HnqTzF1UjbEed5KrRFvWJWY+9vth7jcvVtnJknJ2QYqMmS82KdkFW1XcpHou+WGZa/8mjMi41WTXv1RXUtPr0Fm9fTKi9FKYuWqfUfr0RucVw9Pv4muDh+KjUHleNphv2uYAhKNNAXgTqwPTMOVUYl6MDbczpOrk/DenN8/u48anqzNnStqw5wUounJtWQUJZKhfs37vOu/YUxo/aa8+CTF/ept3apXwFLPYkWD2xYZ/wRffYLFxXl+6RsehGCAZEnXCTk62GVphpLG7KVbfCuHBVNhsFGbnD/h2ycCLpApL92C9XyjJZbjUuw+aPFKWxeTXw+vLzm+piORLRG55t/fMPltSVLPjZaXiBumrAXrdPIFZ/j6+igoVy0kVuCMo0hosZLQuMJni97GvV/97814z0HZ4yo37uSEsw5STYu2xeU585b9/j9ep66UsrZ/0RP29pS0sJpa720tvfbR0oF7Zk2z7090d4O/R+i0qpCeyXDqM0UZ+R5d+36MaopGt86k4R//PV0ly/ed4bNS0e917zj1Xgu5v3BY93+HsEy4ZaQiN00eUjzC8nyXOWvA6XDbUHehDaJ1HrDH4n5/ub8qpHrwtSOu28Zj6z9Tn+d54JlO+I7xbYFv1Z/Ru9WX6lVaqNcxtSj+y0RCc5CljUiaJ7mC8He6Q9RRkpNGTnRfunK64Rgl0xc/uoyM5W5MVq9PZ0l4Ggfh/7GRkbEdl+JXILZaytgsqyfq8nfvP5+Eu1qegbO8FeclVZeoF6T9U/jKzHt7P8l2kMm4UTq1IvlGTKNkr9Doty5b82IwBm9NpPLbH1gm58zY1vNtMSJ3VP7elQ40t9ZlmWzOtuqk7x+KzIef/f1dXb3JEB1Tg7suG9Zl8vHk9usMbrXAfGOjmmztBt2crYO14ozcms/c56yZpaphv+c7r+9b//eZGjKQO25cqS1EamkgM83Rg+PS6bj9vPd1NUTWfJoujDXbfpodPnluXqZkOKR1pHQF839FBtq4MkWM+ZsuF+B/2Zarva0gpjyodHByt2ZHgyqh3WUhxNk/KXwOwTJyVWLYu1UZlygwn1ninnuC7q4PCUPa5mJEWPNjfMyHjiqIr6znPN8q33dVGm3P3Sti1LIqdiUnm70H79qMuO2oaJlGUMLbkJWHQKhc6HjO25j/LiTmS6BfJmWbZ27MN+6fexD/TupRC1ft0Tf2Mtoad+RV1UJJBaZBoL5mKWfIFAj7Ie346GoExj1+nGdKtn1+0116khKjDQaYqpOizmZSpcd5xbNY2vYMOnHpmm06gtteol8+8KMn6v36RX2+KuW/cAdxncd6wDY3kdllJbzV4PqsDObXx7wWDK1DK178s63dOtf1UQUUndDlmWyvmajMalmypmxMnd/2pNJkXVCUjCTK98c7RVj8huy9qV7da/0Wl3hbpsmO20ZSNwDfG2qz1tNbp8aCaNVWqy2LHjTAdL0R0u8eU9yNsnwfaeCf7ceUHqOEw725o4Sp6o7pxbar9cqYs4Ixzt22L3nf2rJ+bcVh9/yd2nA7h27BO5CFh078CUBCudVO4YEeafDgOvN6iv+n3sTe9eBm3rVxfcY8XYXieTAmLmSbg9QbpHa0rkcp5ybveorMe3oyEo09h14UnIgQ65c9PeaIDp3e3QYWHKr5/+4i9eKlFglC88emsFRxyjGkxe6pj3uV6qTVy6Y7zkOrBdUaac7xKewJ1WYzv8jXUPdsrt1+dcON0zKz3/TB3H2ZgUK11PhBvyJuUvKZ1dB43NoKsoI6KOq37O/zd6u/2UrLiRqai01ZjyMXrMzpFLlXaqR4jtw5DE8t4UHB1q8UaWCqNOSKJHP/z9ps6TQjeBdPg7BzqGYrallw4uP5XTbLPujIy+vnc3Or+/5SBg0b0DqvS7B9nNTTRDdwkVUMwJiN0R7BkKik7T6aTfx967WEdXFlHpCCnXHzvRVAcl/h2mQhXX2alA7rJZ9J3X9BC2epyYZoAYWY9vZ/kv09gfgnfV8pduGvkub55AWXaclKWuymDmyfbB79Pr92iJb1APih7V2S5NNXvtw/x0r8CSGBwsyMYNW0ecnZBRMydI1RtqD+sgRs/T6yklK0rqGx7o+ss+HCDTyXd6RNb8/RVzA5Pc8VM5zUJnZD/lIGDxJnG3DrBenNxEM5TnNULCQ6hRk2uxy3TvRbjiCwxfZ9X/Y1/fdu/a4YmfRJhu/SbHOGJ7mneLiro4mTzcUNm/rJoKDR3cJNzYAImyHd8UhqBMYwidXfE6MtLMGTE9vl2maSWyN4DowyhvXB3YPylHNc2IQ8pz05zb/Zg3ptO8RoNzI4ykDpRk+iYcuo6YPzJq5wTpEQg9j0XvB+f7xZUNU0fFzJUL2b5S9uaIhOdExYrpcEklbp94ZdEbMbN3ZrxJqdJt29L3EXlX3AgTOsnRpPtkbbcRNbmn8fmY2CV6eDx0e1YvR7SVm2x6Ttoq9ngdj70ZNk5/R4/lylpgwquuHE0OcDPP1EuP8Ec4Opc979+3TTQ171OVbiB/FYOW9fh2tAtlunl3G/MX9h5VBo8XpX6lIss6NexGcCJw+6ie1+MeblDOX+x2cryvPXiev9jNhOOYOrBrduK5MzfE3JggYuREp1u1zmVvLkzqzgmTNqX2vXuuqXOxmrZucHgT8MtSDgVVOvAIbqOigtXW3zENeB1MjUzIxEhrZFjP4xg9NivjOkXMe0qxdysLlA1/P6SfT6TvRNg28T2Sd2y6CcJ8uv6T0D7xjq9fB3qj0K15Vvb72L88CSPVqXlzWtpuQmHSzwZFjwB229m1vw1NwKIbDWVzVxSbOsNE5dxaOGHvUKKPk1q6mp/k6vuxX5Bp80N99vPWO8wj6bT+xImm4bxzb0ndWEYXMh7fFPJfppFH4bkL3i1VdZqoCgqc3+HxAtip1q1m9cR48VJD/UBY3yrbBDbO501c773MmEnqTkr2xPUuUsK6nmwfzwQA/j5Qi74TWNTvJDVqq7JzzN8ndkS748Rxn2qwlu2dxex61k+JXO1y5LRyflNX+UF6JN2MovnbqJYjG4ERdL8Br19rXht0MKUat8UdJ/jSoykFtYLQSFYr2PDX4c0JSr8fPPpz/DKWdI3SgZOERrEz0fVfoI5et3fA88uzN/Hd3yfr67MiV9Q5Yl7zecGGt197uAWxOj7e6JK/LROyMcjfuzLnSpej/fvcLcVi8W37uGfqs6ReH9hhRp9wnPpJNz7mZOQKKVxZUAYxDCinaVAH7kd6VHni+h495jprI2HCfPf0uaJvMc7cFl+WOnZ4RliAPMo80RQA9hDqwH1JjwqNHu/PjyvmTj/uHtfGC+zHN91bXCMLRlj2IY4TdhtlEMOAcgrscXo+kUy3RorM6Iqeo9jdbbaRTZY6lhEWAAAA7D/npmXjiD9/RS32V+8JVvKHgAUAAAD7kr6hhfvzAszFyicCFgAAAAC5RcACAAAAILf6GrC89dZb8o53vMP+BQAAAABBOl7QcUNafQ1Y/uqv/koOHDhg/wIAAACAIB0v6Lghrb4GLI1GQ9797nfLLbfcYp8BAAAAAI+OE3S8oOOGtPoasLzxxhvy+uuvy2233UbQAgAAAKBJxwc6TtDxgo4b0ur7pPvXXntN3nzzTTl48KC8613vYk4LAAAAsI/peEDHBTo+0HGCjhey6Osv3bve+c53SqFQkJ/+6Z8maAEAAAD2KT3BXs9Z0WlgWUZWfAMLWAAAAACgV31PCQMAAACAfiFgAQAAAJBbBCwAAAAAcouABQAAAEBuEbAAAAAAyC0CFgAAAAC5RcACAAAAILcIWAAAAADkFgELAAAAgNwiYAEAAACQWwQsAAAAAHKLgAUAAABAbhGwAAAAAMgtAhYAAAAAuUXAAgAAACC3CFgAAAAA5BYBCwAAAIDcImABAAAAkFsELAAAAAByi4AFAAAAQG4RsAAAAADILQIWAAAAALlFwAIAAAAgp0T+f4C0/4k+l84pAAAAAElFTkSuQmCC;" parent="1" vertex="1">
          <mxGeometry x="-82" y="-890" width="812" height="249" as="geometry" />
        </mxCell>
        <mxCell id="IW7DVmYQCaHOVOdKGuUd-18" value="0" style="text;html=1;align=center;verticalAlign=middle;resizable=0;points=[];autosize=1;strokeColor=none;fillColor=none;" parent="1" vertex="1">
          <mxGeometry x="60" y="-120" width="30" height="30" as="geometry" />
        </mxCell>
        <mxCell id="IW7DVmYQCaHOVOdKGuUd-19" value="1" style="text;html=1;align=center;verticalAlign=middle;resizable=0;points=[];autosize=1;strokeColor=none;fillColor=none;" parent="1" vertex="1">
          <mxGeometry x="200" y="-510" width="30" height="30" as="geometry" />
        </mxCell>
        <mxCell id="IW7DVmYQCaHOVOdKGuUd-20" value="2" style="text;html=1;align=center;verticalAlign=middle;resizable=0;points=[];autosize=1;strokeColor=none;fillColor=none;" parent="1" vertex="1">
          <mxGeometry x="399" y="-510" width="30" height="30" as="geometry" />
        </mxCell>
        <mxCell id="IW7DVmYQCaHOVOdKGuUd-21" value="3" style="text;html=1;align=center;verticalAlign=middle;resizable=0;points=[];autosize=1;strokeColor=none;fillColor=none;" parent="1" vertex="1">
          <mxGeometry x="560" y="-510" width="30" height="30" as="geometry" />
        </mxCell>
        <UserObject label="" tooltip="vlan 80" id="IW7DVmYQCaHOVOdKGuUd-22">
          <mxCell style="endArrow=none;html=1;rounded=0;exitX=0;exitY=1;exitDx=0;exitDy=0;entryX=-0.006;entryY=0.708;entryDx=0;entryDy=0;entryPerimeter=0;" parent="1" source="IML-LDQJfkCQp97udq9o-20" target="IML-LDQJfkCQp97udq9o-1" edge="1">
            <mxGeometry width="50" height="50" relative="1" as="geometry">
              <mxPoint x="-10" y="330" as="sourcePoint" />
              <mxPoint x="40" y="280" as="targetPoint" />
            </mxGeometry>
          </mxCell>
        </UserObject>
        <mxCell id="ijEthVfau9IOE6_X4YqO-6" value="block storage" style="image;aspect=fixed;perimeter=ellipsePerimeter;html=1;align=center;shadow=0;dashed=0;spacingTop=3;image=img/lib/active_directory/hard_disk.svg;" parent="1" vertex="1">
          <mxGeometry x="-278" y="-180" width="80" height="43.2" as="geometry" />
        </mxCell>
        <mxCell id="ijEthVfau9IOE6_X4YqO-7" value="Ceph Cluster" style="text;html=1;align=center;verticalAlign=middle;resizable=0;points=[];autosize=1;strokeColor=none;fillColor=none;" parent="1" vertex="1">
          <mxGeometry x="-380" y="-584" width="90" height="30" as="geometry" />
        </mxCell>
        <mxCell id="ijEthVfau9IOE6_X4YqO-8" value="object storage" style="image;aspect=fixed;perimeter=ellipsePerimeter;html=1;align=center;shadow=0;dashed=0;spacingTop=3;image=img/lib/active_directory/hard_disk.svg;" parent="1" vertex="1">
          <mxGeometry x="-190" y="-180" width="80" height="43.2" as="geometry" />
        </mxCell>
        <mxCell id="ijEthVfau9IOE6_X4YqO-9" value="file storage" style="image;aspect=fixed;perimeter=ellipsePerimeter;html=1;align=center;shadow=0;dashed=0;spacingTop=3;image=img/lib/active_directory/hard_disk.svg;" parent="1" vertex="1">
          <mxGeometry x="-100" y="-180" width="80" height="43.2" as="geometry" />
        </mxCell>
        <mxCell id="ijEthVfau9IOE6_X4YqO-10" value="glance" style="image;aspect=fixed;perimeter=ellipsePerimeter;html=1;align=center;shadow=0;dashed=0;spacingTop=3;image=img/lib/active_directory/hard_disk.svg;" parent="1" vertex="1">
          <mxGeometry y="-180" width="80" height="43.2" as="geometry" />
        </mxCell>
        <mxCell id="ijEthVfau9IOE6_X4YqO-12" value="&lt;font style=&quot;font-size: 24px;&quot;&gt;오픈스택 서비스&lt;/font&gt;" style="text;html=1;align=center;verticalAlign=middle;resizable=0;points=[];autosize=1;strokeColor=none;fillColor=none;fontStyle=1" parent="1" vertex="1">
          <mxGeometry x="175" y="-585" width="200" height="40" as="geometry" />
        </mxCell>
        <UserObject label="ap-northeast-2a" tooltip="nouu-ceph-monitoring-public-subnetA-seoul&#xa;172.30.0.0/24&#xa;&#xa;nouu-ceph-monitoring-private-subnetA-seoul&#xa;172.30.10.0/24&#xa;" id="15WFC5FHede9x706vmRa-60">
          <mxCell style="fillColor=none;strokeColor=#147EBA;dashed=1;verticalAlign=top;fontStyle=0;fontColor=#147EBA;whiteSpace=wrap;html=1;movable=1;resizable=1;rotatable=1;deletable=1;editable=1;locked=0;connectable=1;container=0;spacingTop=-4;" parent="1" vertex="1">
            <mxGeometry x="990" y="160" width="200" height="480" as="geometry" />
          </mxCell>
        </UserObject>
        <mxCell id="15WFC5FHede9x706vmRa-61" value="AWS Cloud" style="points=[[0,0],[0.25,0],[0.5,0],[0.75,0],[1,0],[1,0.25],[1,0.5],[1,0.75],[1,1],[0.75,1],[0.5,1],[0.25,1],[0,1],[0,0.75],[0,0.5],[0,0.25]];outlineConnect=0;gradientColor=none;html=1;whiteSpace=wrap;fontSize=12;fontStyle=0;container=0;pointerEvents=0;collapsible=0;recursiveResize=0;shape=mxgraph.aws4.group;grIcon=mxgraph.aws4.group_aws_cloud;strokeColor=#232F3E;fillColor=none;verticalAlign=top;align=left;spacingLeft=30;fontColor=#232F3E;dashed=0;movable=1;resizable=1;rotatable=1;deletable=1;editable=1;locked=0;connectable=1;" parent="1" vertex="1">
          <mxGeometry x="940" y="60" width="670" height="710" as="geometry" />
        </mxCell>
        <mxCell id="15WFC5FHede9x706vmRa-62" value="Seoul Region&amp;nbsp;" style="points=[[0,0],[0.25,0],[0.5,0],[0.75,0],[1,0],[1,0.25],[1,0.5],[1,0.75],[1,1],[0.75,1],[0.5,1],[0.25,1],[0,1],[0,0.75],[0,0.5],[0,0.25]];outlineConnect=0;gradientColor=none;html=1;whiteSpace=wrap;fontSize=12;fontStyle=0;container=0;pointerEvents=0;collapsible=0;recursiveResize=0;shape=mxgraph.aws4.group;grIcon=mxgraph.aws4.group_region;strokeColor=#147EBA;fillColor=none;verticalAlign=top;align=left;spacingLeft=30;fontColor=#147EBA;dashed=1;movable=1;resizable=1;rotatable=1;deletable=1;editable=1;locked=0;connectable=1;" parent="1" vertex="1">
          <mxGeometry x="950" y="90" width="630" height="650" as="geometry" />
        </mxCell>
        <mxCell id="15WFC5FHede9x706vmRa-69" value="&amp;nbsp;Public subnet A" style="points=[[0,0],[0.25,0],[0.5,0],[0.75,0],[1,0],[1,0.25],[1,0.5],[1,0.75],[1,1],[0.75,1],[0.5,1],[0.25,1],[0,1],[0,0.75],[0,0.5],[0,0.25]];outlineConnect=0;gradientColor=none;html=1;whiteSpace=wrap;fontSize=12;fontStyle=0;container=0;pointerEvents=0;collapsible=0;recursiveResize=0;shape=mxgraph.aws4.group;grIcon=mxgraph.aws4.group_security_group;grStroke=0;strokeColor=#248814;fillColor=#E9F3E6;verticalAlign=top;align=left;spacingLeft=30;fontColor=#248814;dashed=0;movable=1;resizable=1;rotatable=1;deletable=1;editable=1;locked=0;connectable=1;" parent="1" vertex="1">
          <mxGeometry x="1000" y="180" width="180" height="130" as="geometry" />
        </mxCell>
        <mxCell id="15WFC5FHede9x706vmRa-70" value="Public subnet C" style="points=[[0,0],[0.25,0],[0.5,0],[0.75,0],[1,0],[1,0.25],[1,0.5],[1,0.75],[1,1],[0.75,1],[0.5,1],[0.25,1],[0,1],[0,0.75],[0,0.5],[0,0.25]];outlineConnect=0;gradientColor=none;html=1;whiteSpace=wrap;fontSize=12;fontStyle=0;container=0;pointerEvents=0;collapsible=0;recursiveResize=0;shape=mxgraph.aws4.group;grIcon=mxgraph.aws4.group_security_group;grStroke=0;strokeColor=#248814;fillColor=#E9F3E6;verticalAlign=top;align=left;spacingLeft=30;fontColor=#248814;dashed=0;movable=1;resizable=1;rotatable=1;deletable=1;editable=1;locked=0;connectable=1;" parent="1" vertex="1">
          <mxGeometry x="1310" y="180" width="180" height="130" as="geometry" />
        </mxCell>
        <mxCell id="15WFC5FHede9x706vmRa-71" value="EFS" style="sketch=0;points=[[0,0,0],[0.25,0,0],[0.5,0,0],[0.75,0,0],[1,0,0],[0,1,0],[0.25,1,0],[0.5,1,0],[0.75,1,0],[1,1,0],[0,0.25,0],[0,0.5,0],[0,0.75,0],[1,0.25,0],[1,0.5,0],[1,0.75,0]];outlineConnect=0;fontColor=#232F3E;gradientColor=#60A337;gradientDirection=north;fillColor=#277116;strokeColor=#ffffff;dashed=0;verticalLabelPosition=bottom;verticalAlign=top;align=center;html=1;fontSize=12;fontStyle=0;aspect=fixed;shape=mxgraph.aws4.resourceIcon;resIcon=mxgraph.aws4.elastic_file_system;container=0;movable=1;resizable=1;rotatable=1;deletable=1;editable=1;locked=0;connectable=1;" parent="1" vertex="1">
          <mxGeometry x="1220" y="380" width="50" height="50" as="geometry" />
        </mxCell>
        <mxCell id="15WFC5FHede9x706vmRa-72" value="Private DB subnet A" style="points=[[0,0],[0.25,0],[0.5,0],[0.75,0],[1,0],[1,0.25],[1,0.5],[1,0.75],[1,1],[0.75,1],[0.5,1],[0.25,1],[0,1],[0,0.75],[0,0.5],[0,0.25]];outlineConnect=0;gradientColor=none;html=1;whiteSpace=wrap;fontSize=12;fontStyle=0;container=0;pointerEvents=0;collapsible=0;recursiveResize=0;shape=mxgraph.aws4.group;grIcon=mxgraph.aws4.group_security_group;grStroke=0;strokeColor=#147EBA;fillColor=#E6F2F8;verticalAlign=top;align=left;spacingLeft=30;fontColor=#147EBA;dashed=0;movable=1;resizable=1;rotatable=1;deletable=1;editable=1;locked=0;connectable=1;" parent="1" vertex="1">
          <mxGeometry x="1000" y="500" width="180" height="130" as="geometry" />
        </mxCell>
        <mxCell id="15WFC5FHede9x706vmRa-73" style="edgeStyle=orthogonalEdgeStyle;rounded=0;orthogonalLoop=1;jettySize=auto;html=1;movable=1;resizable=1;rotatable=1;deletable=1;editable=1;locked=0;connectable=1;" parent="1" source="15WFC5FHede9x706vmRa-83" target="15WFC5FHede9x706vmRa-72" edge="1">
          <mxGeometry relative="1" as="geometry" />
        </mxCell>
        <mxCell id="15WFC5FHede9x706vmRa-74" value="Master" style="sketch=0;outlineConnect=0;fontColor=#232F3E;gradientColor=none;fillColor=#2E27AD;strokeColor=none;dashed=0;verticalLabelPosition=bottom;verticalAlign=top;align=center;html=1;fontSize=12;fontStyle=0;aspect=fixed;pointerEvents=1;shape=mxgraph.aws4.aurora_instance;container=0;movable=1;resizable=1;rotatable=1;deletable=1;editable=1;locked=0;connectable=1;" parent="1" vertex="1">
          <mxGeometry x="1062.5" y="537.5" width="55" height="55" as="geometry" />
        </mxCell>
        <mxCell id="15WFC5FHede9x706vmRa-75" value="Private DB subnet C" style="points=[[0,0],[0.25,0],[0.5,0],[0.75,0],[1,0],[1,0.25],[1,0.5],[1,0.75],[1,1],[0.75,1],[0.5,1],[0.25,1],[0,1],[0,0.75],[0,0.5],[0,0.25]];outlineConnect=0;gradientColor=none;html=1;whiteSpace=wrap;fontSize=12;fontStyle=0;container=0;pointerEvents=0;collapsible=0;recursiveResize=0;shape=mxgraph.aws4.group;grIcon=mxgraph.aws4.group_security_group;grStroke=0;strokeColor=#147EBA;fillColor=#E6F2F8;verticalAlign=top;align=left;spacingLeft=30;fontColor=#147EBA;dashed=0;movable=1;resizable=1;rotatable=1;deletable=1;editable=1;locked=0;connectable=1;" parent="1" vertex="1">
          <mxGeometry x="1310" y="500" width="180" height="130" as="geometry" />
        </mxCell>
        <mxCell id="15WFC5FHede9x706vmRa-76" style="edgeStyle=orthogonalEdgeStyle;rounded=0;orthogonalLoop=1;jettySize=auto;html=1;movable=1;resizable=1;rotatable=1;deletable=1;editable=1;locked=0;connectable=1;" parent="1" source="15WFC5FHede9x706vmRa-84" target="15WFC5FHede9x706vmRa-75" edge="1">
          <mxGeometry relative="1" as="geometry">
            <Array as="points">
              <mxPoint x="1400" y="480" />
              <mxPoint x="1400" y="480" />
            </Array>
          </mxGeometry>
        </mxCell>
        <mxCell id="15WFC5FHede9x706vmRa-77" value="Read-Only" style="sketch=0;outlineConnect=0;fontColor=#232F3E;gradientColor=none;fillColor=#2E27AD;strokeColor=none;dashed=0;verticalLabelPosition=bottom;verticalAlign=top;align=center;html=1;fontSize=12;fontStyle=0;aspect=fixed;pointerEvents=1;shape=mxgraph.aws4.aurora_instance;container=0;movable=1;resizable=1;rotatable=1;deletable=1;editable=1;locked=0;connectable=1;" parent="1" vertex="1">
          <mxGeometry x="1375" y="540" width="50" height="50" as="geometry" />
        </mxCell>
        <mxCell id="15WFC5FHede9x706vmRa-78" value="" style="edgeStyle=orthogonalEdgeStyle;rounded=0;orthogonalLoop=1;jettySize=auto;html=1;movable=1;resizable=1;rotatable=1;deletable=1;editable=1;locked=0;connectable=1;" parent="1" source="15WFC5FHede9x706vmRa-72" target="15WFC5FHede9x706vmRa-75" edge="1">
          <mxGeometry relative="1" as="geometry" />
        </mxCell>
        <mxCell id="15WFC5FHede9x706vmRa-79" value="" style="edgeStyle=orthogonalEdgeStyle;rounded=0;orthogonalLoop=1;jettySize=auto;html=1;movable=1;resizable=1;rotatable=1;deletable=1;editable=1;locked=0;connectable=1;" parent="1" source="15WFC5FHede9x706vmRa-75" target="15WFC5FHede9x706vmRa-72" edge="1">
          <mxGeometry relative="1" as="geometry" />
        </mxCell>
        <mxCell id="15WFC5FHede9x706vmRa-80" value="" style="edgeStyle=orthogonalEdgeStyle;rounded=0;orthogonalLoop=1;jettySize=auto;html=1;movable=1;resizable=1;rotatable=1;deletable=1;editable=1;locked=0;connectable=1;" parent="1" source="15WFC5FHede9x706vmRa-75" target="15WFC5FHede9x706vmRa-72" edge="1">
          <mxGeometry relative="1" as="geometry" />
        </mxCell>
        <mxCell id="15WFC5FHede9x706vmRa-81" value="" style="sketch=0;outlineConnect=0;fontColor=#232F3E;gradientColor=none;fillColor=#4D27AA;strokeColor=none;dashed=0;verticalLabelPosition=bottom;verticalAlign=top;align=center;html=1;fontSize=12;fontStyle=0;aspect=fixed;pointerEvents=1;shape=mxgraph.aws4.internet_gateway;container=0;movable=1;resizable=1;rotatable=1;deletable=1;editable=1;locked=0;connectable=1;" parent="1" vertex="1">
          <mxGeometry x="1220" y="104" width="50" height="50" as="geometry" />
        </mxCell>
        <mxCell id="15WFC5FHede9x706vmRa-82" value="NAT Gateway" style="sketch=0;outlineConnect=0;fontColor=#232F3E;gradientColor=none;fillColor=#4D27AA;strokeColor=none;dashed=0;verticalLabelPosition=bottom;verticalAlign=top;align=center;html=1;fontSize=12;fontStyle=0;aspect=fixed;pointerEvents=1;shape=mxgraph.aws4.nat_gateway;movable=1;resizable=1;rotatable=1;deletable=1;editable=1;locked=0;connectable=1;" parent="1" vertex="1">
          <mxGeometry x="1110" y="220" width="50" height="50" as="geometry" />
        </mxCell>
        <mxCell id="15WFC5FHede9x706vmRa-83" value="Private Web subnet A" style="points=[[0,0],[0.25,0],[0.5,0],[0.75,0],[1,0],[1,0.25],[1,0.5],[1,0.75],[1,1],[0.75,1],[0.5,1],[0.25,1],[0,1],[0,0.75],[0,0.5],[0,0.25]];outlineConnect=0;gradientColor=none;html=1;whiteSpace=wrap;fontSize=12;fontStyle=0;container=1;pointerEvents=0;collapsible=0;recursiveResize=0;shape=mxgraph.aws4.group;grIcon=mxgraph.aws4.group_security_group;grStroke=0;strokeColor=#147EBA;fillColor=#E6F2F8;verticalAlign=top;align=left;spacingLeft=30;fontColor=#147EBA;dashed=0;movable=1;resizable=1;rotatable=1;deletable=1;editable=1;locked=0;connectable=1;" parent="1" vertex="1">
          <mxGeometry x="1000" y="340" width="180" height="130" as="geometry" />
        </mxCell>
        <mxCell id="15WFC5FHede9x706vmRa-84" value="Private Web subnet C" style="points=[[0,0],[0.25,0],[0.5,0],[0.75,0],[1,0],[1,0.25],[1,0.5],[1,0.75],[1,1],[0.75,1],[0.5,1],[0.25,1],[0,1],[0,0.75],[0,0.5],[0,0.25]];outlineConnect=0;gradientColor=none;html=1;whiteSpace=wrap;fontSize=12;fontStyle=0;container=1;pointerEvents=0;collapsible=0;recursiveResize=0;shape=mxgraph.aws4.group;grIcon=mxgraph.aws4.group_security_group;grStroke=0;strokeColor=#147EBA;fillColor=#E6F2F8;verticalAlign=top;align=left;spacingLeft=30;fontColor=#147EBA;dashed=0;movable=1;resizable=1;rotatable=1;deletable=1;editable=1;locked=0;connectable=1;" parent="1" vertex="1">
          <mxGeometry x="1310" y="340" width="180" height="130" as="geometry" />
        </mxCell>
        <mxCell id="15WFC5FHede9x706vmRa-86" value="" style="sketch=0;outlineConnect=0;fontColor=#232F3E;gradientColor=none;fillColor=#4D27AA;strokeColor=none;dashed=0;verticalLabelPosition=bottom;verticalAlign=top;align=center;html=1;fontSize=12;fontStyle=0;aspect=fixed;pointerEvents=1;shape=mxgraph.aws4.application_load_balancer;container=0;movable=1;resizable=1;rotatable=1;deletable=1;editable=1;locked=0;connectable=1;" parent="1" vertex="1">
          <mxGeometry x="1222" y="278" width="50" height="50" as="geometry" />
        </mxCell>
        <mxCell id="15WFC5FHede9x706vmRa-87" style="edgeStyle=orthogonalEdgeStyle;rounded=0;orthogonalLoop=1;jettySize=auto;html=1;movable=1;resizable=1;rotatable=1;deletable=1;editable=1;locked=0;connectable=1;" parent="1" source="15WFC5FHede9x706vmRa-90" edge="1">
          <mxGeometry relative="1" as="geometry">
            <Array as="points">
              <mxPoint x="1400" y="480" />
              <mxPoint x="1400" y="480" />
            </Array>
            <mxPoint x="1400" y="500" as="targetPoint" />
          </mxGeometry>
        </mxCell>
        <mxCell id="15WFC5FHede9x706vmRa-88" value="Private monitoring subnet A" style="points=[[0,0],[0.25,0],[0.5,0],[0.75,0],[1,0],[1,0.25],[1,0.5],[1,0.75],[1,1],[0.75,1],[0.5,1],[0.25,1],[0,1],[0,0.75],[0,0.5],[0,0.25]];outlineConnect=0;gradientColor=none;html=1;whiteSpace=wrap;fontSize=12;fontStyle=0;container=1;pointerEvents=0;collapsible=0;recursiveResize=0;shape=mxgraph.aws4.group;grIcon=mxgraph.aws4.group_security_group;grStroke=0;strokeColor=#147EBA;fillColor=#E6F2F8;verticalAlign=top;align=left;spacingLeft=30;fontColor=#147EBA;dashed=0;movable=1;resizable=1;rotatable=1;deletable=1;editable=1;locked=0;connectable=1;" parent="1" vertex="1">
          <mxGeometry x="1000" y="340" width="180" height="130" as="geometry" />
        </mxCell>
        <mxCell id="15WFC5FHede9x706vmRa-89" value="tunneling &lt;br&gt;established server" style="sketch=0;points=[[0,0,0],[0.25,0,0],[0.5,0,0],[0.75,0,0],[1,0,0],[0,1,0],[0.25,1,0],[0.5,1,0],[0.75,1,0],[1,1,0],[0,0.25,0],[0,0.5,0],[0,0.75,0],[1,0.25,0],[1,0.5,0],[1,0.75,0]];outlineConnect=0;fontColor=#232F3E;gradientColor=#F78E04;gradientDirection=north;fillColor=#D05C17;strokeColor=#ffffff;dashed=0;verticalLabelPosition=bottom;verticalAlign=top;align=center;html=1;fontSize=12;fontStyle=0;aspect=fixed;shape=mxgraph.aws4.resourceIcon;resIcon=mxgraph.aws4.ec2;movable=1;resizable=1;rotatable=1;deletable=1;editable=1;locked=0;connectable=1;" parent="15WFC5FHede9x706vmRa-88" vertex="1">
          <mxGeometry x="26" y="55" width="34" height="34" as="geometry" />
        </mxCell>
        <mxCell id="15WFC5FHede9x706vmRa-90" value="Private monitoring subnet A" style="points=[[0,0],[0.25,0],[0.5,0],[0.75,0],[1,0],[1,0.25],[1,0.5],[1,0.75],[1,1],[0.75,1],[0.5,1],[0.25,1],[0,1],[0,0.75],[0,0.5],[0,0.25]];outlineConnect=0;gradientColor=none;html=1;whiteSpace=wrap;fontSize=12;fontStyle=0;container=1;pointerEvents=0;collapsible=0;recursiveResize=0;shape=mxgraph.aws4.group;grIcon=mxgraph.aws4.group_security_group;grStroke=0;strokeColor=#147EBA;fillColor=#E6F2F8;verticalAlign=top;align=left;spacingLeft=30;fontColor=#147EBA;dashed=0;movable=1;resizable=1;rotatable=1;deletable=1;editable=1;locked=0;connectable=1;" parent="1" vertex="1">
          <mxGeometry x="1310" y="340" width="180" height="130" as="geometry" />
        </mxCell>
        <mxCell id="15WFC5FHede9x706vmRa-91" value="" style="rounded=1;whiteSpace=wrap;html=1;fillColor=none;" parent="1" vertex="1">
          <mxGeometry x="1067" y="366.5" width="356" height="83" as="geometry" />
        </mxCell>
        <mxCell id="15WFC5FHede9x706vmRa-92" value="ecs fargate" style="shape=image;verticalLabelPosition=bottom;labelBackgroundColor=none;verticalAlign=top;aspect=fixed;imageAspect=0;image=data:image/png,iVBORw0KGgoAAAANSUhEUgAAAE4AAABPCAYAAABF9vO4AAAAAXNSR0IArs4c6QAAAARnQU1BAACxjwv8YQUAAAAJcEhZcwAADsMAAA7DAcdvqGQAAAzuSURBVHhe7ZwLcFTVGce/3WQfeewrBCJKHojKqATEVpFXHCo+QdSp9QHio46KStDaASHBtjPFWBjaWnkIOs6ogEqrthUQH63yiFqVKhBQqGJYEjRAQrKb926y6fmfe+7mbnJ3926yN5t29jfzze4959yz5/zvd875zrkBQ8vvU7soSUyYJj5BRvE9SYwYu5i/JS0248JJH0lixdgVMFDSYrNApyHpcX0lOcf1wbhw0scgY/g0yrzpTTJfcLdIGHwYvL8zCw0Tj+XCu8g8pYTIWSBSGA1HyXdgA7V+uoaMHfUiMbFYJi9NvHCBVBeljZ7VW7A2D5HVIS4Y7Nq355lBISAXzlOWGOG6zEywCQ+T+ccLQgTyH91N7buXUaB6B5GtgKxFS8k8dq7IZQgB2/ZuJGo8KhIHFuvURAjHxLBPKCYqZGIoBPPt30C+fRslwXqiJiAD97TtWjbgAnLhGp60DIhwBnt+xM53ed0iJTyoI5zoWuuIB2lFpfoLl5J7OVnYEzIVTBUpDDbcWj9dRf6KDX3rrMXJhvh8NtSZiMp58PDfqOmzZ6mzaqdI0AcuXP1v9REuNT+8YL49q6mrtUEk9h1DmrqA8jzZ4dZHQPRLF+GMTjak5h8WVxK+rfdTy96XxVX8Sb/ozl4rc/2G28ng/qu4ih8QTpcA2OhQhBUCdAqd0wM8KMpjnm11iRQJa96F4lv80WWTH8KJfdIn8wTzzOfIOf+Q5OpsmKndG4thOkif9Tz3br7oyMMVMaBA7b7+GtB9y1W//jJq2nA1n3c4TMC0y5eS4+HDZL28lFKy8qT0GDCNLKLMO9+jzLnvdq/SmD93LiPv6tHkr9kvpenIgOxV/ZW7qOnlq6h21SQeOnCYd0BAeEvGjc9pEjDj4rnkWvA1Fyy46LAtmXfrYvKsGU1tO5+kztPHpHSdMQaY68XblCjTDXV7qfHNB7hXcAHFkILXQMDMm17n3qS8x5jh4J4JwTDUg5M/9rBswal7+gLys51ER6M3eI8SZV3xMqCLx3X4Ilfrr63iAsJLMLxkAU2FM7g32e9+l4yjbqD0aSV8SMMzZcEw5BteuJYL1riHbbsSxIAM1XDAS1o+LOMCYrh11FfxdAxD19xXJcHEhA8PxVD3vni17gGuFhIqnAwExHDz/IkNYTb8ZAEBBMPQhodiqA8WBnSO02KezzZR+5diAWF4Xp9H7SerVcuGM5lAp1E1v9/G6h0UHve/SFzeOZjyi0KulSjTtZoStfxopkSZbhg6LuS6rwb67HHGYePIeuVKGlb6PTnv3U7WnBEiZ/CSfd923l60G+3vD8zj2DYiBjMXFJHr3ncou/hjshc92L3NKbgpWEaJ8l6tpkQtP5opkdNM582S2soM7Ub70Q/0R3mvFgNGgutpsIDRRVm3bubeJUftWP28u57lYULrJ6u7yytR1KHZlKjlRzMlIs13aIsUzrD2KsMe9Af9Qv9C6ohkDE1DNeWMsTS85AAPUAF+uHbTQ1S38nxqfXchdQ7A3jAeoJ1oL9qN9gcFZP1C/9BPrUQVDpXBrbmbswgfgSp+uPMr/c7WBgK0H/1Af/jOhfUP/dQqXtQ4znnHZqkkq7z2+Wup+aM1quWUpkQtP5opUcuPZkrU8pWG/qBf8rYP/VUrp7TOjih/O2K9YCalunL594ZNt5H/+wr+fbBjMIceaEYD/UL/APqLfkfD2BVg810YS8mR3Lbj+wPU8p9y1TJq1tHSfZCIRqiViWR4ojJq+ZGMTE5KPXMMv7f1h2rVMmqG/qGfAP1WKyMb0LQ4pGZJXqcVX3VFcOK1XVFKZO99lK4H5hGFNHTedumCDT3/4S3Sd40E++nrfvDhiBjHNX3+ilQKsc9P16uWCWenX53Hb8XTP7O0gjJnrOAdUyvb05So5fc01Iv2YXKXva32jSUUYOKplVcz3M8XQEbTvm2qZWQDET2uy+PmcQ/IvHQ2OW5eR0ZReTRwboa3TPKkKwedOUsO8nos4+4IfXUYAwZHPqWzEMI2czmvD/WifQCejt9t36ftrA79QXvk+9Ff9DsahuqFNhHShWfYQ9tCgt7GrYuopWIbv44GGpYxvYTsaFgY0VGnv/YYdda7KdDg5qfAaedO5nk8XDA7+JusFFc+peUyj1KpB3W0fL6RmsvXck/TgiT+iuACiId9cq0Uq0bCNn0JGap+GV04YJ+1XNpiCTCRNny4ls8jnYrFIBIZ42ZQSj4TJW9Mn71NCV+0vt1Nne5d1MyGlxZS0h1kGn09Oac9FBzWAJ7mfetxcRUZ+1UxCAfMZ08l25UlQW/gsKfbtH8btX1TTj72xALMa7RizR9DKfAkrN5WJ5mGjyVThiOkQwAC+ZvZZP8D26F43dR2rILvArQ+MCPzVDN7UNZzp1DmWOZRCo9t/eYjany/jHzf7RYp0YlZOBl4jvWy+aECCmQv8FWxmO/0XmpzS0v8QIIHQlkXkTm3kNLPmdrrQYC+CCbDhXP/wh6zcDKpQ/Iok4kI11cTUQZidtW5WVwl7Wnbvi3nnx31x6ijLvbXefjdVJf0OtF6zhT+mca81TAkX1UkGYiFqQWrZl9+V8Z5zeL+CafElGnnQwFzWLinrAk29Furur003GKgBeUciKnE3+QVOf0jrsKpkT7yQmnIDM3lKyWI5Jl9BZ4E8OLbd4oF3myKaKk8yNP0gK+qRx916CZcJEzZucHhBqx5hTzsCAuL5rEoyGCY4/1sIrBfyTyu8pGBES5l2FhKbaukdm+jSNEHeDfgnqcTjqsWa9ur9ofMS2bTiF9XUG7JLn5YiB+12G0iN36knzeZzrp3E9/ewbJnrw2KqAeG74rj73GWnFxKGz+HXD9RvJPoQdNnr5D3/aeo/UT/PMM2YTY5r1sSjP57IocdzYekeTAe8MUhnsIFUrMo57ZlwX2fjJ9tz+o+fo0yx1/bKwCFgPX/WEcdMR6/o/E9Hwy2XQ1vP8W2ZnlkmzgnREwI6PlgHbUejO3ERA0u3JFiZ9yEc13zOLmuY3tLGRZaVP3hevLXdE/qXakuyrtnVfD9BUCnflgV/fBQxsJ2MGc9+pa4ksA7BO+nr4oriV7tYXy3ILZDTjVQr+a3XJqsJ8wbch/bQtk3l5HpjEKyT7id8p/YGSJaELX6wpkK2XPW0rA71nBRYbn3bewlGketvliNocvigCGDIchh4uFwAIsDOicPH5SR46/+wH9HnIZgioAnwoIPh+Vhqog3cf0bYBkcEZ14aT5VLx0vneeJjgF04vjTs8i9dByL5rv3iWr1hTMl+J0jJePp5F9K+MOQwXcMX573z/UiNbbfCWdA13Ckvd5NpzaXUv0H0mEoPOzYurl8+xMNiyufsmYsIsck6SVKRNobqHHHOibiwyKB+IPxsAUJeXqgexwXK9jv5s3bQCOWfcnnKAzv/GX7JAEtTlEq8RgDAbx7jI91dnY/h1jScQYHYSBQyPwkwLwIAUeVfcm9MCWtOwRR1qdES3pfDe3WxeNM2XmUPlo67glHalYBOQqkf8CBk5SeCwefnx47m8+HyoUGXnjGA91/eOiaEnkoG9OcbFcxSVzFj7gKF2iT5hMIAM8ZWbavV8cg6PB7VtPIJ79QD0vYQoIgtr78NQq0NlDL4XI69feVYVdgCH7uHyu5oEpPxINBGrxUNSzpJ4ZD92eJyCQ+DCm6tdd5fliYSB2nq1TLwutaKrby43TVk2aW31W9X118FbCa12xZTi3u/h83DZn5OKXM/1Hab8R1XGhlDavf+SK1H/mITEPyuPWED8Wty6nmpWI24TuYF07mHlX3eimlOHL4PUbmPZb8S7rvZyLXbn+GAh43mc8qpPbqA3T06Vuo8V+byWSz8bResHuavniTjq+9i2p3vEh+zymR0T/Sz5ui36ra9DULPVbOosrSi4NzFMSpWT+Xjiy+iO1P11NHc+jLFs8Xb/N7qsqKQoYm5rvDj5xNdUzsthPVIlXCV+um4y8U8/mwdssKyYvZg0FchxgOeSgTb3T/n27aTx6j6ucX0KH7ssm94gZq2LM9JF+JnNZc+VXIaUbtjj9HLA/zN3qp9q0VdKh4FH27aDydfu85nqYsEy8Dunnc/zsJ/59ulPQnfSANDBqPw8qZe/8zZB+jHnOZ7XYaOu0Wck65XaQkFsPBn2cLDRODbdT5/OhJeSApLwxyGIKDgp5/e4K06pd+Ja4GlmE3Lky8cMDisJFt4m2UNf3BkFNbNU7teZt85evIU/GJSBl4uHAH7km8cEpyrvgZZVw6JzToZSGGl4U0NdvWk//UcZGYOLJnLhp8wsk4x07kG38cQXn+/Q61Nej7WjEWuHAVdw8dlMINZoZev5CtqpAtabEZI/k/FvbBuHDSR5JYiflfDyYtuVftF8k5rg8GDDVvrBBfk2jFXjiJDF0McZ1EM0T/Bes7mOo3h8KfAAAAAElFTkSuQmCC;" parent="1" vertex="1">
          <mxGeometry x="1077.42" y="369" width="32.58" height="33" as="geometry" />
        </mxCell>
        <mxCell id="15WFC5FHede9x706vmRa-93" value="" style="shape=image;verticalLabelPosition=bottom;labelBackgroundColor=default;verticalAlign=top;aspect=fixed;imageAspect=0;image=data:image/png,iVBORw0KGgoAAAANSUhEUgAAAGMAAABjCAYAAACPO76VAAAU1UlEQVR4Ae1dCXCT55n+uG9s8A2Tme7ubDeZdtKdtJNst91mdmfbtEmY3YY0B0mT0ByFhpsQCAQwlzGQArGB0KZNk0zSLJ1tUsJRknJtSUJwwJwGYsv3KZ+SLEuyLPvdeb/r/36dv6RflrxrZt755UtY/+Pne77new+R+hemQP2KKdAg4sUp0PDiZGhcOQUaV+KVRdOqyUDjpcnQ9NIkaH5pMjSvniSjZc0kwLC+jDGRxdqJ0Cpi3URoXTcR2tZjTJDRnj8BaGyYAO0bxkPHhgnQgdeN46ETYxOLrs3joWvzOBBX25ZxQKNgHNgKxoEdY+tYGY7CsUBj21hwbBsD3dvGQve2MeDczmPHGHDuGAM9r2CMluH65WigsXM0uHaOBjeNUeDexcKzexSI6H11FLAYCd4iHsUjwVs8Evow9oyAvj3s6ts7AmjsGwG+fSOgnwaB/tdGQP9rBAb2EyD1K6YCRgMNBGIqNLyIQCixago00ZjMQKBAIBiToYUGAjFZAYODsnYStNJAICYpYDBQ2vMnAgsEgMfGCdCxcQJ0itg0gQLCQEBAWNi2jAcaBeMZGFsRjHHgEFE4joLRvW0cB2IsdG8fC04RO8YqYAhQxoDrlxgIxBgGxK7R4N41Gjwido+mYPS+OpoDwQDxFo0CGsWjGBgUBASChW/vSMDo34fBwXhtBAyI2D8CSP0LU4GxA0HxZ4gAhDNEsAOvCIgEZRK0rOahY8gksK7FCMcQxhTBEASlXQLD2RGKIYIdeBUMoaAgQxAYzo5CZIUSgh141TFEgMLZQUFRGLJrFAUFWRLIDgQF2YGgMHZQhuhA4exAlghAOEMQFA4GY4dkCGXHVGhUGMKYoTJkigIGZwhlhx9DKBiCIZOgbR2GWK4EM7Rrx4aJjCUhGTKBsUMwg1/tBeP5UqUwhLLDjyHbQzFkLF2yXK8IdrCrOyxDkB0KQwQ78Fo8Cvow9mCMBB8GZ4eOIa+NpEsVBaNu+VSgIRiSUhoilq9kaAjTEsMaIvVDMCR6DSF1y9MoGGy58mMILlv+GrJqCjTqNCQIQ1BHBlNDVJaYqSFUPwZPQ0jdMs4MzhBTNYTrh7bLik1DqLjTZSsBGkKXrVC7rEgaIoQ9hIbQHZZxDeHMQHYIhqQBBUTdZSVKQ6h+JFpDxmu7LKkhuMPiu6xIGiLZEaWGFI2C3ig1hNQuS4PaZVNlpLaG/N/2IRyMNKhbJtghGIJbXgMagn5EpyHqlnfYhwhjaMSHkJqlaVCzFJnBGIIagkwRDDFVQ9CLDPuQkD6E1C5Nh9qlCAQLph2CJZwd/gxJlIas/f/tQ0jNkjSg4ccQoSOCIXXDPkQ5PsGzLPN9CKlZki7B0DEkVg0Z9iExn2WR6iXpUC3YgVfKELFsTYWh4EM6C3PAW3UCbPu/xU56zTzLGkQfwpmB7EinQETWkNTyIZ2FudDXdBHw34CrE+wUEDzpFae9kc6yUseHkOrF6VC9OI1FAEO0XVYqakj7liwJBEWDA2Lb+40hmQ/hYCAguFxxhvDlyhQNSZAPad+SDX0NJQID3XWgpw3s+/6R5UQkQ7RcCOZEUjEfQqoWpQOGZMiStCAaojEkFXxI2+Zs6KvXgBjoc+vAwA/6na1g23u7+RqCeZEE5UNI1aJpChiCGdFoSBCnnkAf0r4pSweE58p/gaf0LQqGr7MSnAfnSWD6u1vAtufrfgyJpCHJy4eQqoXpQMOfIagjKaYhrRszwVvzqbzZnrL3oS1/MrhL32RgdFTSfLrz8CL5PRSQ4q8lQUOi9yGkauG0IGAw/UiIhsToQ1o3ZIG35jN5kz1lH0Br/hRa4OAufZuB0Vklc+rOI36AFN3qxxBFQ1IkH0IqF06DSj926DUk+T7Euj5DD8SNw9C6fgqrPFk3EVQwRPUJ5tSdx1ZI8PrtDdBV9A/ma4iJPoSDgexA7RAhBD0WDTHfh/SW/0XeVM/1D2mRA6064fkQ9wWuGXSZ0vLpWHnSc/xl+bP99nroKsz2Y0gkDRk8H0IsC6aBZUE6VGIIhuA1hTSk441ZAD4v9JZ/DNZ1aQF1WcGYIWqzkCE9pzZRQHo+XpXSdVmkcsE0oEGXK86QADCS70M69v9ryLoslRlsmQqsy3K89cMIVSeKhiTJhxDL89MAg4GC7IikIeF3WcnwISozsGpRX7k4dOqyiOX56QoYCAQL8zQk8T5EBWMo12WRil9MAwzBEKkhC1NXQ7DGV80Yui9oW9voantTqy5LMiMsQ4JpCD16F7stdvRuyllWDD5EDwZWL5pc2ztIPoRU/GI6ZYaOHVFpSPJ9iEthRiy1valSl8XBQN1QQwh6IjTEfB8SCAav7R1idVmkfP50KJ/PdEPoh44lQ8CHOI69DL1VZ8B96cCQ7g/hYOBSxUJoh7gOFR8yqLW9CfIhpHzedKBBGSJA8dthRaUhqedDhkp/CCmfnwG4VFWI0DFE6EgiNSTxPgRFnXVQpXZdFvly3nTA0DPEgIYMkg9p2XEHOP5SQKN509/KHsPm9bnQfbyARlvxP+t6DB1HVoHzxBboenu2TkPsf3gSek5uAcefnqcuXe/UWZ+h6KDC7inZQTVIPYbky3kZgFGOwZcqyhQdQ9AUhnHqCfQh7W8+Ik9dW3d/m9b1Ym2vteCr8vO2/55P+wtFj2G/vYl+zXXudQ4G6zH03DhMP9/XcMHcHkOTfAj58ucZ8OXPGTsCGWKGhsTnQ9p/97C86dZd35ZduC1b/l5+HsFQewxVMFSnrgND9BkaOMsaLB/CwVDZITQkg+mIjiHRaUjTzn8H982TULtyZsx1WT0X3pM33awHA24bdO65i7IjmrMs18n14D5TmLB8CLn5XAbcfG46hGeIAQ3xy4fUF9wF/R4nvX/uyrNQsyLPcE7dYzkDnsoz4G28Ytb9D3ieAVcXeKv/SsPxwfyIGtJzfK18jp5jLyQkp05uPpcJCAgDgzFEaggKu27LqzHDiIY4Lx2UL8Bt+RRqXsxjDIlQlyV/SHng+HgrOD5GId8qBV0Iu4MLuRB0ej1RAN0nCsBJY4u89lYcV56VPew5vS2shvR8tEr+TL+jEbqKbmPswF51E+uyyM1nkRlahGdI9BqiA6TyM6hZkROWIZgPocywnAGfrZHehH63nQ4OMKNP3XFkpbyxWGnirT4DlBkhNMR5TPt+mkd/9VZtlyWmOJhU2yuZEYwhbIclNIR7kSg1pHpJFvRcPSpvgLv8f6D2hRxDGuI4XeQHBp/kEEddluPPq+Xv0pqfwYcGBPch3YcXy+9FIDp33waJ7FMnN57NABEaS0zQEMWHVC/ODACkZllWWIZgba/9lAaGWf0hjqMvyRuMVSehZp10H/IDYtetdN5JIn0IufFsJmDcxKDLVRgNicOHVC/RA+K6cRxqlmeH1RDH6WKNGbRZx0CPYYR8iOOoxgwNDP2sk0AgbqP1WTHPOjHoQ8iNZzLhxjPB2MF0xGwN6blyRP5luso+osXW/pWLtmNbwfbRVvBUn5NgiA6qeHsMHUc0ZjhPbaNOvfO390pz6PhQZUQjdOz+esSculk+hIPB2EEZwndXkTWE+ZC6gruhYdcsaNytj6ZXZwGNolnQpETz3v8Eb1ulBsjVo5wdWn+I/CJ/gAJuVp86HpX4/0NQcLly/GmB7kuOD+aB7Y0fgu2Ne8D2Oxb2N+8BNRxv3QP+QScCyV2W8boscv3pTLj+dAZcfyYTrisMQR0xoiGu8k90LyCWD7pL3tP1h/g/B4JhVn+I/XAgGN2ntkHXu4/6/7cxfxzrvCxy/eksQEDYcqUwxIiGzJsO8YKBxrBp9w+C9ofYT2maYVafuuOIphkt6zLlvCzrxjzoa7ocMwDqD8Y6L4uUPZ0JGIwhDBSVIRo7gmtI7ea7oX7nLKjfxQKXLBHq0sWWrfuhu+SA/L0Henugcef3lZYElgsRGqKCYVafusqMlrWZ/ICRzcpCQLwNF+Tv5+uqga43Z0HXG/cEhFi2xFUsXbhkydPeKH0IZwayI4suVQEMMawhkX1I69vzAQYG6ItFRjS+8m+8vjd4bW8gGKI/XVyj71O3q8yQYGjzsqwbcsDbcF4C0ms5Adb89EHJh5Cyn2VB2c8yWSgMiVVD2PFJ4FlW63tL5Qvsd9mhYfvdIWt7m4vvAwznxfcZcG4778LVOqhi1RD7IU0zOn77H9D++o/Auv1runxIS342eJXOKM/NozHOXIyuLouDkQVlXDvi0pAQPqT198p20e2A+sLv6SsXlXxIzfIcCZp4gAKOLdFm1GWpzBDP331yuy4fgnMXKUNqz4pvAT1DElOXRa7NzYJrc5EZnCFBNCQeH2J9d4l8Qf09XVC/9XtKOWlgbW/1shBgiC6qOPvU7Yc1ARe/GIKh5kNoxeLqSWDNzwRvEECizakb9SGkbG42lM1FIFgwZpihIRnQekA5ZHPZoK4AgQiTMeT9IU1F90Nz8f3gLFWWKZP61AOWqV/fC9ZtuEwFmSi3ZjJY87Oht+qvAjfWliBy6ibXZZFrT2UBDckQrh+oI1JDovchNfl3yRfgc3ZA7ebvyMpFo3VZtpPa1pb2qgt28CN4dRqQUQ2xHdIceNOaTJlTjzS3t7fytHw9zpNbYtSQ8POyyLWnshUwNIaYoSHWd5aAr7sdavLvjKkuSw8G6zOMd9aJ7fAaeVOb1mSxNK6BeVl4joUMQe1ozZ/Ojk8EQ0yq7SVXn8oCDI0dkTUkGh9iWfo3MddlSTBcdtP61G0farupxtUcDDHZOsLcXuv6TF31Oz3xNXFuL7n6VDZgXJuLkQWJ05DIPgSrF6uW5sq/XPEAt8JsaICoeo+9T912SGOGeH7Hie18onVy5/aSq09mw9UnGTskQ5ApUkP4LkunIXiOFdtZVigfovaHiJukXt0Vn0BAWD4Bty7OgMfyicwUioyhyKljXr2vvUp9WvoYwUjO7He9D+FgMHZQhlCWCDDM1RCRT8druNrezqOFgGE7vT/gxpn1CW/TVZlTb/vV/drs9wj5EDb7PTFze8mVJ7IBIyhDKDsia0g8PiRSf0jHwfXy/ntqSyU7PNXa7BCvtVzHEPEDPnuTjiX9PR30S77OOmhcd0v8s99NnttLrjyRo4ChMCThGmKsLqv513PEvYWGwu/Ks6y6dbfKz7e/t0CXU/fZm+nXuj/9Dc+DsLMs1zWW2OqtL+UFDvHn1AOq39XZ71H6EHL5p9mAwRiSFZwhOg0xx4cYre1t/pUGRv3W77DRGgvToXatBkbb75/X5UN8NgaG49PfyKmk6EMkGHWlYFZOXbyHiFq5GOv7h0hm6JcrhSEJ9CGBrQiBdVk1K/9OZgyrls9kkxz4WZZw6nVrv6rLhzTv/j607L0PGgvu0KaSLkuD5h3/BNZ990HLzn9hM3v9p5IGm/2eoHlZ2K/un1Mnl3+aw5gh2RG/hkTjQ/QMEcIeXX9Iy+tzoOvPhdDxx5W04kTkQ4JNJU1Gn7rRsywOBuoG0w5xZYKuMCThGmLMhwTrU3d8/g7ViL72ai2fbvgsK3X6Q8ilx3Pg0uNMN4R+XOY7rCtPGNGQwfchdNaJUpflOKuBISfKpeC8rPAMmQDk8uM5QIMuVypD1OVKYUgK+BD/WSeBYLBzrFSalyWOTsK9BxW59FgO0KCgIEO4hkh2qKD4OfUU8CG4bKlgBEwDGkJze8mlx3MBl6rgDNGYMvgaYsyHBIIR78xF8/vUcdvLykjFm7kE71MnFx/LAQyVIQEaIndaRjQkMT6kfscPQuZDBDO8bVXSh/gzpLn43oi1vehFROViMnwIufhYrgZGSIYIUyiOTfw0RJpCk8+yeH9IQ9EDMODzQk/ZcahclMuHzmgZQwlGe7XOh4jxfp2H8uluq/Pg2rC1vdo7JISoOkmwDyEX5+TCxTmMHf4MuUx3Wcn3Ic5r2lg85+WjkiHipNfxGdtNITPY1lebSNrxIQMC0fDZmmhLW6r6EA5GLlx6jEdYDUGGMD8ymBpSsSgPXDe1PDQCYlmYJeedSGa0VeuqTtrf14oP+roaoX7D7SntQ0jpo7lQ+mgOY0cIhgRoiNxpGdEQc3xIxcI8cFVopTPdpQehYkEmZYldMqMaxLystgPL6NJEGWG3Ql3+7frKxRT0IRwMXKp4SA0Jt8uKoCFyy2uuhlQsngkuix4Qy4JMubX1IjMWTIO2A8t1QNRvvMNvAGZq+hAJhsYQgxoi2TG4PqRi0UxwV2nll46SP4D97Lv05qNmWN/Ryvp9yIiN39QqF/lEUiHsrOIkvj51/btFR/leuH75EFL6aB4wIBR2zDGqIcnxIZYlt4C7UksuDXg9kgniAVal1G26U6chqTq3V/gQcuGRXMAoFRGLhiTBh1gW36JjiAABr77uNqjdeCfbAg+BeVli5iK58EgeB0NjCDIlUEPwQDGUU4+gIQnyIQiIp07fU9Hf08mB0HyI/1lW4CD+5M/txYwhufBwHlx4mLGDMoQyA3dYYpdlUEMkO+LXkGjyIZalXwFPLQPE5+yE2s3fDfAhQ2VuLwcD2cFCpyEKQ1LZh1iWfQXclrNQuwmBYAkqVtOrZQ4pO3C6dQrP7SXnH8qD8w/lwnlkh8oQ1BDJktT3IfqMYWB/iHDrwofg3PdUm/3OwcCliofQEGWXFVxDUs+HGK3LMqQhSZjbK8FgDBGgmKAhSfIheobEllNPlg8h5x+aAQyIGXBesAOvwTREuPQU9yG0YnG+8XwI6oh5s99jz4eQL36SBzKofoTREKkjUWqI3GkZOctKTD5EndlrtD9Ex5BBOMsiX/xkBmBoDEEwxHIlGIKmcOj5ECN1WUF3WUqPoah+p9cEv48hKXlwBpQ8qLEDgfhCMkSAYoKGSHYMrg8xX0MSN7eXfPHgDKARwBADGjJEfAjTkNjrsrTlKv7+kIYVU6EhxLwsUjJ7BpTMzgN/hlAdkQwZ9iEIiAZKYt4Ll5Q8OJMDEYohITRk2IeY/l645NzsGYBBGUL1I1BDhAfRhN0EDRn2IQH9IaRk9kwOBGNIXBoy7EMgnvdTJ+cemAE0VIbEqiHDPgRo5XuMferk3AMzgcbsmXy5ilFDhn1I3BpCPv/xTPj8x5wdyBKVISE0ZNiHaHVZAbusON5P/X8B1AjpqNimBLgAAAAASUVORK5CYII=;" parent="1" vertex="1">
          <mxGeometry x="1115" y="379" width="17" height="17" as="geometry" />
        </mxCell>
        <mxCell id="15WFC5FHede9x706vmRa-94" value="" style="rounded=1;whiteSpace=wrap;html=1;fillColor=none;" parent="1" vertex="1">
          <mxGeometry x="1111.5" y="377.5" width="267" height="52.5" as="geometry" />
        </mxCell>
        <mxCell id="15WFC5FHede9x706vmRa-109" value="&lt;b&gt;&lt;font style=&quot;font-size: 24px;&quot;&gt;Active&lt;/font&gt;&lt;/b&gt;" style="text;strokeColor=none;align=center;fillColor=none;html=1;verticalAlign=middle;whiteSpace=wrap;rounded=0;" parent="1" vertex="1">
          <mxGeometry x="1154" y="84" width="60" height="30" as="geometry" />
        </mxCell>
        <mxCell id="15WFC5FHede9x706vmRa-117" value="Site To Site&lt;br&gt;VPN" style="sketch=0;points=[[0,0,0],[0.25,0,0],[0.5,0,0],[0.75,0,0],[1,0,0],[0,1,0],[0.25,1,0],[0.5,1,0],[0.75,1,0],[1,1,0],[0,0.25,0],[0,0.5,0],[0,0.75,0],[1,0.25,0],[1,0.5,0],[1,0.75,0]];outlineConnect=0;fontColor=#232F3E;gradientColor=#945DF2;gradientDirection=north;fillColor=#5A30B5;strokeColor=#ffffff;dashed=0;verticalLabelPosition=bottom;verticalAlign=top;align=center;html=1;fontSize=12;fontStyle=0;aspect=fixed;shape=mxgraph.aws4.resourceIcon;resIcon=mxgraph.aws4.site_to_site_vpn;movable=1;resizable=1;rotatable=1;deletable=1;editable=1;locked=0;connectable=1;shadow=0;" parent="1" vertex="1">
          <mxGeometry x="690" y="383" width="50" height="50" as="geometry" />
        </mxCell>
        <mxCell id="15WFC5FHede9x706vmRa-118" value="" style="endArrow=none;html=1;rounded=0;entryX=0;entryY=0.5;entryDx=0;entryDy=0;entryPerimeter=0;" parent="1" target="15WFC5FHede9x706vmRa-117" edge="1">
          <mxGeometry width="50" height="50" relative="1" as="geometry">
            <mxPoint x="390" y="396" as="sourcePoint" />
            <mxPoint x="480" y="446" as="targetPoint" />
          </mxGeometry>
        </mxCell>
        <mxCell id="15WFC5FHede9x706vmRa-119" value="" style="endArrow=none;html=1;rounded=0;entryX=0.014;entryY=0.521;entryDx=0;entryDy=0;entryPerimeter=0;" parent="1" target="15WFC5FHede9x706vmRa-60" edge="1">
          <mxGeometry width="50" height="50" relative="1" as="geometry">
            <mxPoint x="740" y="408" as="sourcePoint" />
            <mxPoint x="1040" y="420" as="targetPoint" />
          </mxGeometry>
        </mxCell>
      </root>
    </mxGraphModel>
  </diagram>
</mxfile>
